<?xml version="1.0" encoding="UTF-8" standalone="no"?>
<!-- Created with Inkscape (http://www.inkscape.org/) -->

<svg
   xmlns:dc="http://purl.org/dc/elements/1.1/"
   xmlns:cc="http://creativecommons.org/ns#"
   xmlns:rdf="http://www.w3.org/1999/02/22-rdf-syntax-ns#"
   xmlns:svg="http://www.w3.org/2000/svg"
   xmlns="http://www.w3.org/2000/svg"
   xmlns:sodipodi="http://sodipodi.sourceforge.net/DTD/sodipodi-0.dtd"
   xmlns:inkscape="http://www.inkscape.org/namespaces/inkscape"
   width="460.62991"
   height="248.03149"
   id="svg2957"
   version="1.1"
   inkscape:version="0.47pre0"
   sodipodi:docname="Codificación UTF-8,path.svg"
   inkscape:output_extension="org.inkscape.output.svg.inkscape">
  <defs
     id="defs3">
    <inkscape:perspective
       sodipodi:type="inkscape:persp3d"
       inkscape:vp_x="0 : 526.18109 : 1"
       inkscape:vp_y="0 : 1000 : 0"
       inkscape:vp_z="744.09448 : 526.18109 : 1"
       inkscape:persp3d-origin="372.04724 : 350.78739 : 1"
       id="perspective2963" />
    <inkscape:perspective
       id="perspective2902"
       inkscape:persp3d-origin="0.5 : 0.33333333 : 1"
       inkscape:vp_z="1 : 0.5 : 1"
       inkscape:vp_y="0 : 1000 : 0"
       inkscape:vp_x="0 : 0.5 : 1"
       sodipodi:type="inkscape:persp3d" />
  </defs>
  <sodipodi:namedview
     inkscape:document-units="mm"
     id="base"
     pagecolor="#ffffff"
     bordercolor="#666666"
     borderopacity="1.0"
     inkscape:pageopacity="0.0"
     inkscape:pageshadow="2"
     inkscape:zoom="1.206"
     inkscape:cx="79.218195"
     inkscape:cy="187.8315"
     inkscape:current-layer="layer1"
     showgrid="false"
     units="cm"
     inkscape:window-width="1600"
     inkscape:window-height="850"
     inkscape:window-x="-8"
     inkscape:window-y="-8"
     inkscape:window-maximized="1" />
  <metadata
     id="metadata4">
    <rdf:RDF>
      <cc:Work
         rdf:about="">
        <dc:format>image/svg+xml</dc:format>
        <dc:type
           rdf:resource="http://purl.org/dc/dcmitype/StillImage" />
      </cc:Work>
    </rdf:RDF>
  </metadata>
  <g
     inkscape:label="Layer 1"
     inkscape:groupmode="layer"
     id="layer1"
     transform="translate(0,-804.32878)">
    <path
       style="fill:#ffffff;stroke:none;stroke-width:1;stroke-miterlimit:4;stroke-opacity:1"
       d="m 0.82918739,0.93365002 461.85739261,0 0,246.26865998 -461.85739261,0 0,-246.26865998 z"
       id="rect3074"
       transform="translate(0,804.32878)" />
    <path
       transform="matrix(0.59634522,0,0,0.58119626,167.22733,869.3502)"
       style="fill:#00ffff;fill-opacity:1;stroke:none;stroke-width:2.95535707;marker-start:none"
       d="m 428.38358,245.74428 c 0,15.34997 -19.6122,27.79357 -43.80509,27.79357 -24.19288,0 -43.80509,-12.4436 -43.80509,-27.79357 0,-15.34997 19.61221,-27.79358 43.80509,-27.79358 24.19289,0 43.80509,12.44361 43.80509,27.79358 z"
       id="path4461" />
    <g
       style="font-size:18px"
       id="text2824">
      <path
         d="m 21.638805,886.85284 0,-9.33398 1.423829,0 0,1.32715 c 0.685543,-1.02538 1.675776,-1.53808 2.970703,-1.53809 0.562493,1e-5 1.079583,0.10109 1.551269,0.30323 0.471672,0.20215 0.824699,0.46729 1.059082,0.79541 0.234367,0.32813 0.398429,0.71778 0.492188,1.16894 0.05859,0.29298 0.08788,0.80567 0.08789,1.53809 l 0,5.73925 -1.582031,0 0,-5.67773 c -7e-6,-0.64453 -0.06153,-1.12646 -0.18457,-1.4458 -0.123054,-0.31933 -0.341315,-0.57421 -0.654785,-0.76465 -0.313483,-0.19042 -0.681158,-0.28564 -1.103028,-0.28564 -0.673832,0 -1.255375,0.21387 -1.744629,0.6416 -0.48926,0.42774 -0.733889,1.23926 -0.733886,2.43457 l 0,5.09765 z m 1.125,-10.71386 c -0.0059,-0.60937 0.161131,-1.09569 0.500977,-1.45899 0.333981,-0.36327 0.761715,-0.54491 1.283203,-0.54492 0.363277,10e-6 0.858394,0.15822 1.485352,0.47461 0.345697,0.17579 0.621087,0.26368 0.826172,0.26367 0.187493,1e-5 0.331047,-0.0513 0.430664,-0.15381 0.0996,-0.10252 0.169914,-0.30614 0.210937,-0.61084 l 1.142578,0 c -0.01759,0.66798 -0.186043,1.16896 -0.505371,1.50293 -0.319343,0.334 -0.725105,0.50099 -1.217285,0.50098 -0.369147,10e-6 -0.855474,-0.16405 -1.458984,-0.49219 -0.392583,-0.21092 -0.679692,-0.31639 -0.861329,-0.3164 -0.199222,10e-6 -0.360355,0.0703 -0.483398,0.21093 -0.12891,0.14064 -0.190433,0.34865 -0.18457,0.62403 z"
         style=""
         id="path3522" />
      <path
         d="m 39.673962,890.64093 c -0.873051,-1.10157 -1.611331,-2.39063 -2.214844,-3.86719 -0.603517,-1.47656 -0.905275,-3.00585 -0.905274,-4.58789 -10e-7,-1.39452 0.225585,-2.73046 0.676758,-4.00781 0.527342,-1.48241 1.341794,-2.95897 2.44336,-4.42969 l 1.133789,0 c -0.708989,1.21876 -1.177739,2.08888 -1.40625,2.61035 -0.357426,0.80861 -0.638675,1.65236 -0.84375,2.53125 -0.251956,1.09571 -0.377933,2.19728 -0.37793,3.30469 -3e-6,2.81836 0.875973,5.63379 2.62793,8.44629 z"
         style=""
         id="path3524" />
      <path
         d="m 51.319469,873.96808 1.705079,0 0,7.44433 c -1.2e-5,1.29493 -0.146496,2.32325 -0.439454,3.08497 -0.292979,0.76172 -0.821787,1.38134 -1.586425,1.85888 -0.764658,0.47754 -1.768074,0.71631 -3.010254,0.71631 -1.207037,0 -2.19434,-0.20801 -2.961914,-0.62402 -0.767581,-0.41602 -1.315432,-1.01807 -1.643555,-1.80615 -0.328127,-0.78809 -0.492189,-1.86475 -0.492187,-3.22999 l 0,-7.44433 1.705078,0 0,7.43555 c -3e-6,1.11914 0.104,1.94385 0.312011,2.47412 0.208005,0.53027 0.565426,0.93896 1.072266,1.22607 0.506831,0.28711 1.126459,0.43067 1.858887,0.43066 1.253898,10e-6 2.147452,-0.28417 2.680664,-0.85253 0.533193,-0.56836 0.799795,-1.66113 0.799804,-3.27832 z"
         style=""
         id="path3526" />
      <path
         d="m 55.670055,886.85284 0,-9.33398 1.423829,0 0,1.32715 c 0.685543,-1.02538 1.675776,-1.53808 2.970703,-1.53809 0.562493,1e-5 1.079583,0.10109 1.551269,0.30323 0.471672,0.20215 0.824699,0.46729 1.059082,0.79541 0.234367,0.32813 0.398429,0.71778 0.492188,1.16894 0.05858,0.29298 0.08788,0.80567 0.08789,1.53809 l 0,5.73925 -1.582031,0 0,-5.67773 c -7e-6,-0.64453 -0.06153,-1.12646 -0.18457,-1.4458 -0.123054,-0.31933 -0.341315,-0.57421 -0.654785,-0.76465 -0.313483,-0.19042 -0.681158,-0.28564 -1.103028,-0.28564 -0.673832,0 -1.255375,0.21387 -1.744629,0.6416 -0.48926,0.42774 -0.733889,1.23926 -0.733886,2.43457 l 0,5.09765 z"
         style=""
         id="path3528" />
      <path
         d="m 65.698376,875.78741 0,-1.81933 1.582031,0 0,1.81933 z m 0,11.06543 0,-9.33398 1.582031,0 0,9.33398 z"
         style=""
         id="path3530" />
      <path
         d="m 75.788219,883.4339 1.555665,0.20215 c -0.169931,1.07227 -0.604989,1.91162 -1.305176,2.51806 -0.700202,0.60645 -1.560065,0.90967 -2.57959,0.90967 -1.277348,0 -2.304202,-0.41748 -3.080567,-1.25244 -0.776368,-0.83496 -1.164551,-2.03173 -1.16455,-3.59033 -10e-7,-1.00781 0.166991,-1.88964 0.500976,-2.64551 0.333983,-0.75585 0.842283,-1.32274 1.524903,-1.70068 0.682613,-0.37792 1.425288,-0.56689 2.228027,-0.5669 1.013666,1e-5 1.842767,0.25636 2.487305,0.76905 0.644523,0.5127 1.057608,1.24073 1.239257,2.18408 l -1.538085,0.2373 c -0.146492,-0.62694 -0.405769,-1.09862 -0.777833,-1.41504 -0.372076,-0.3164 -0.821782,-0.4746 -1.349121,-0.47461 -0.796879,10e-6 -1.444339,0.28566 -1.942382,0.85694 -0.49805,0.57129 -0.747073,1.4751 -0.747071,2.71142 -2e-6,1.25391 0.240232,2.16504 0.720703,2.7334 0.480466,0.56836 1.107418,0.85254 1.88086,0.85254 0.621088,0 1.139642,-0.19043 1.555664,-0.57129 0.416009,-0.38086 0.67968,-0.96679 0.791015,-1.75781 z"
         style=""
         id="path3532" />
      <path
         d="m 78.108532,882.18585 c -10e-7,-1.72851 0.480468,-3.00878 1.441406,-3.84082 0.802732,-0.6914 1.781246,-1.0371 2.935547,-1.03711 1.283197,1e-5 2.332024,0.42042 3.146484,1.26123 0.814445,0.84083 1.221671,2.00245 1.22168,3.48487 -9e-6,1.20117 -0.180185,2.14599 -0.540527,2.83447 -0.36036,0.68848 -0.884774,1.22314 -1.573242,1.604 -0.688483,0.38086 -1.439948,0.57129 -2.254395,0.57129 -1.306644,0 -2.362796,-0.41894 -3.168457,-1.25683 -0.805665,-0.83789 -1.208497,-2.04492 -1.208496,-3.6211 z m 1.625977,0 c -3e-6,1.19532 0.260739,2.09034 0.782226,2.68506 0.521481,0.59473 1.17773,0.89209 1.96875,0.89209 0.785151,0 1.43847,-0.29883 1.959961,-0.89648 0.521477,-0.59766 0.782219,-1.50879 0.782227,-2.7334 -8e-6,-1.15429 -0.262215,-2.0288 -0.786622,-2.62354 -0.52442,-0.59472 -1.176275,-0.89208 -1.955566,-0.89209 -0.79102,10e-6 -1.447269,0.29591 -1.96875,0.8877 -0.521487,0.5918 -0.782229,1.48536 -0.782226,2.68066 z"
         style=""
         id="path3534" />
      <path
         d="m 94.772594,886.85284 0,-1.17773 c -0.591803,0.92578 -1.461919,1.38867 -2.610351,1.38867 -0.744145,0 -1.428226,-0.20508 -2.052246,-0.61523 -0.624026,-0.41016 -1.107424,-0.98291 -1.450196,-1.71826 -0.342774,-0.73535 -0.51416,-1.58057 -0.51416,-2.53565 0,-0.93163 0.155273,-1.77685 0.465821,-2.53564 0.310545,-0.75878 0.776365,-1.34033 1.397461,-1.74463 0.62109,-0.40429 1.315425,-0.60644 2.083007,-0.60645 0.562495,1e-5 1.063471,0.11866 1.50293,0.35596 0.439447,0.23731 0.796868,0.54639 1.072266,0.92725 l 0,-4.62305 1.573242,0 0,12.88476 z m -5.000976,-4.6582 c -2e-6,1.19532 0.251951,2.08887 0.755859,2.68067 0.503903,0.59179 1.098629,0.88769 1.78418,0.88769 0.691401,0 1.278802,-0.28271 1.762207,-0.84814 0.483391,-0.56543 0.72509,-1.42822 0.725098,-2.58838 -8e-6,-1.27734 -0.246101,-2.21484 -0.738282,-2.8125 -0.492193,-0.59765 -1.098638,-0.89648 -1.819336,-0.89649 -0.703129,10e-6 -1.29053,0.28712 -1.762207,0.86133 -0.471682,0.57423 -0.707521,1.4795 -0.707519,2.71582 z"
         style=""
         id="path3536" />
      <path
         d="m 105.12611,883.84698 1.63477,0.20215 c -0.25783,0.95508 -0.73536,1.69629 -1.43262,2.22364 -0.69727,0.52734 -1.5879,0.79101 -2.67188,0.79101 -1.36523,0 -2.44775,-0.42041 -3.247555,-1.26123 -0.799806,-0.84082 -1.199708,-2.02002 -1.199707,-3.5376 -10e-7,-1.5703 0.404296,-2.78905 1.212891,-3.65625 0.808591,-0.86717 1.857421,-1.30077 3.146481,-1.30078 1.24804,1e-5 2.26757,0.42482 3.0586,1.27442 0.791,0.84961 1.18651,2.04492 1.18652,3.58593 -1e-5,0.0938 -0.003,0.23438 -0.009,0.42188 l -6.960936,0 c 0.05859,1.02539 0.348626,1.81055 0.870116,2.35547 0.52148,0.54492 1.17187,0.81738 1.95117,0.81738 0.58008,0 1.07519,-0.15234 1.48535,-0.45703 0.41015,-0.30469 0.73535,-0.79101 0.97559,-1.45899 z m -5.194336,-2.55761 5.211916,0 c -0.0703,-0.78515 -0.26954,-1.37402 -0.59766,-1.7666 -0.50391,-0.60937 -1.15723,-0.91406 -1.95996,-0.91407 -0.72657,10e-6 -1.33741,0.24318 -1.83252,0.7295 -0.49512,0.48633 -0.769044,1.13672 -0.821776,1.95117 z"
         style=""
         id="path3538" />
      <path
         d="m 109.7931,890.64093 -1.13379,0 c 1.75195,-2.8125 2.62793,-5.62793 2.62793,-8.44629 0,-1.10156 -0.12598,-2.19433 -0.37793,-3.27832 -0.19922,-0.8789 -0.47754,-1.72265 -0.83496,-2.53125 -0.22852,-0.52733 -0.70019,-1.40624 -1.41504,-2.63672 l 1.13379,0 c 1.10156,1.47072 1.91601,2.94728 2.44336,4.42969 0.45117,1.27735 0.67675,2.61329 0.67676,4.00781 -10e-6,1.58204 -0.30323,3.11133 -0.90967,4.58789 -0.60645,1.47656 -1.34326,2.76562 -2.21045,3.86719 z"
         style=""
         id="path3540" />
      <path
         d="m 128.08314,879.27667 -8.50781,0 0,-1.47656 8.50781,0 z m 0,3.91114 -8.50781,0 0,-1.47657 8.50781,0 z"
         style=""
         id="path3542" />
      <path
         d="m 148.91322,873.96808 1.70508,0 0,7.44433 c -1e-5,1.29493 -0.1465,2.32325 -0.43946,3.08497 -0.29298,0.76172 -0.82178,1.38134 -1.58642,1.85888 -0.76466,0.47754 -1.76808,0.71631 -3.01026,0.71631 -1.20703,0 -2.19434,-0.20801 -2.96191,-0.62402 -0.76758,-0.41602 -1.31543,-1.01807 -1.64355,-1.80615 -0.32813,-0.78809 -0.49219,-1.86475 -0.49219,-3.22999 l 0,-7.44433 1.70508,0 0,7.43555 c -1e-5,1.11914 0.104,1.94385 0.31201,2.47412 0.208,0.53027 0.56542,0.93896 1.07226,1.22607 0.50683,0.28711 1.12646,0.43067 1.85889,0.43066 1.2539,10e-6 2.14745,-0.28417 2.68066,-0.85253 0.5332,-0.56836 0.7998,-1.66113 0.79981,-3.27832 z"
         style=""
         id="path3544" />
      <path
         d="m 156.58607,884.76984 0,-3.53321 -3.50683,0 0,-1.47656 3.50683,0 0,-3.50684 1.49414,0 0,3.50684 3.50684,0 0,1.47656 -3.50684,0 0,3.53321 z"
         style=""
         id="path3546" />
      <path
         d="m 163.33607,880.49835 c 0,-1.52343 0.15674,-2.7495 0.47022,-3.67822 0.31347,-0.9287 0.77929,-1.64501 1.39746,-2.14893 0.61816,-0.50389 1.39599,-0.75584 2.33349,-0.75586 0.6914,2e-5 1.29785,0.13918 1.81934,0.41748 0.52148,0.27834 0.95214,0.6797 1.29199,1.20411 0.33984,0.52442 0.60644,1.16309 0.79981,1.91601 0.19335,0.75294 0.29003,1.76808 0.29003,3.04541 0,1.51173 -0.15528,2.73194 -0.46582,3.66065 -0.31055,0.92871 -0.77491,1.64648 -1.39306,2.15332 -0.61817,0.50683 -1.39893,0.76025 -2.34229,0.76025 -1.24219,0 -2.21777,-0.44531 -2.92675,-1.33594 -0.84962,-1.07226 -1.27442,-2.81835 -1.27442,-5.23828 z m 1.62598,0 c 0,2.11524 0.24755,3.52295 0.74267,4.22315 0.49512,0.70019 1.10596,1.05029 1.83252,1.05029 0.72656,0 1.3374,-0.35156 1.83252,-1.05469 0.49511,-0.70312 0.74267,-2.10937 0.74268,-4.21875 -1e-5,-2.12108 -0.24757,-3.53026 -0.74268,-4.22754 -0.49512,-0.69725 -1.11182,-1.04588 -1.8501,-1.0459 -0.72656,2e-5 -1.30664,0.30763 -1.74023,0.92286 -0.54492,0.78516 -0.81738,2.23536 -0.81738,4.35058 z"
         style=""
         id="path3548" />
      <path
         d="m 173.3556,880.49835 c 0,-1.52343 0.15674,-2.7495 0.47022,-3.67822 0.31347,-0.9287 0.77929,-1.64501 1.39746,-2.14893 0.61816,-0.50389 1.39599,-0.75584 2.33349,-0.75586 0.6914,2e-5 1.29785,0.13918 1.81934,0.41748 0.52148,0.27834 0.95214,0.6797 1.29199,1.20411 0.33984,0.52442 0.60644,1.16309 0.79981,1.91601 0.19335,0.75294 0.29003,1.76808 0.29004,3.04541 -1e-5,1.51173 -0.15529,2.73194 -0.46582,3.66065 -0.31056,0.92871 -0.77491,1.64648 -1.39307,2.15332 -0.61817,0.50683 -1.39893,0.76025 -2.34229,0.76025 -1.24219,0 -2.21777,-0.44531 -2.92675,-1.33594 -0.84961,-1.07226 -1.27442,-2.81835 -1.27442,-5.23828 z m 1.62598,0 c 0,2.11524 0.24755,3.52295 0.74267,4.22315 0.49512,0.70019 1.10596,1.05029 1.83252,1.05029 0.72656,0 1.3374,-0.35156 1.83252,-1.05469 0.49511,-0.70312 0.74267,-2.10937 0.74268,-4.21875 -1e-5,-2.12108 -0.24757,-3.53026 -0.74268,-4.22754 -0.49512,-0.69725 -1.11182,-1.04588 -1.85009,-1.0459 -0.72657,2e-5 -1.30665,0.30763 -1.74024,0.92286 -0.54492,0.78516 -0.81738,2.23536 -0.81738,4.35058 z"
         style=""
         id="path3550" />
      <path
         d="m 184.10463,886.85284 0,-12.88476 8.69238,0 0,1.52051 -6.98731,0 0,3.99023 6.04688,0 0,1.52051 -6.04688,0 0,5.85351 z"
         style=""
         id="path3552" />
      <path
         d="m 200.33802,886.85284 -1.58203,0 0,-10.08105 c -0.38086,0.36329 -0.88037,0.72657 -1.49853,1.08984 -0.61817,0.36329 -1.17334,0.63575 -1.66553,0.81739 l 0,-1.5293 c 0.88476,-0.41601 1.6582,-0.91991 2.32031,-1.51172 0.66211,-0.59178 1.13086,-1.166 1.40625,-1.72266 l 1.01953,0 z"
         style=""
         id="path3554" />
    </g>
    <g
       transform="matrix(0,0.57555848,-1.7374429,0,0,0)"
       style="font-size:38.21994019px;font-style:normal;font-variant:normal;font-weight:normal;font-stretch:normal;text-align:start;line-height:125%;writing-mode:lr-tb;text-anchor:start;font-family:Times New Roman;-inkscape-font-specification:Times New Roman"
       id="text2832">
      <path
         d="m 1619.4814,-180.33597 0,-0.65317 c 2.0777,0.27374 3.7666,1.11042 5.0668,2.51005 1.3001,1.39968 1.9501,2.95796 1.9502,4.67485 -10e-5,0.8958 -0.1431,1.93466 -0.4293,3.11657 -0.2861,1.18195 -0.4292,2.10261 -0.4292,2.76199 0,0.89579 0.3763,1.73247 1.1291,2.51005 0.7526,0.77759 1.7946,1.25348 3.1259,1.42765 l 0,0.76514 c -1.3313,0.17419 -2.3733,0.65007 -3.1259,1.42765 -0.7528,0.77759 -1.1291,1.61428 -1.1291,2.51005 0,0.6594 0.1431,1.58317 0.4292,2.77132 0.2862,1.18815 0.4292,2.23012 0.4293,3.1259 -10e-5,1.69202 -0.6501,3.24098 -1.9502,4.64686 -1.3002,1.40587 -2.9891,2.25188 -5.0668,2.53804 l 0,-0.65317 c 1.4556,-0.36081 2.5225,-0.93311 3.2006,-1.71691 0.678,-0.78382 1.017,-1.65471 1.017,-2.6127 0,-0.73404 -0.143,-1.70136 -0.4292,-2.90195 -0.2861,-1.20059 -0.4292,-2.21767 -0.4292,-3.05125 0,-1.26902 0.4634,-2.49449 1.3903,-3.67643 0.9269,-1.18192 2.3048,-2.09636 4.1337,-2.74333 -1.7916,-0.65938 -3.1602,-1.59248 -4.1057,-2.79931 -0.9455,-1.2068 -1.4183,-2.43849 -1.4183,-3.69509 0,-0.846 0.1431,-1.8693 0.4292,-3.06991 0.2862,-1.20058 0.4292,-2.16789 0.4292,-2.90195 0,-0.94553 -0.339,-1.81331 -1.017,-2.60337 -0.6781,-0.79 -1.745,-1.35919 -3.2006,-1.70758 z"
         style=""
         id="path3519" />
    </g>
    <g
       style="font-size:18px"
       id="text2824-1">
      <path
         d="m 154.45412,977.77466 -1.58203,0 0,-10.08106 c -0.38087,0.36329 -0.88038,0.72658 -1.49854,1.08985 -0.61817,0.36329 -1.17334,0.63575 -1.66553,0.81738 l 0,-1.5293 c 0.88477,-0.416 1.6582,-0.91991 2.32032,-1.51172 0.6621,-0.59178 1.13085,-1.166 1.40625,-1.72265 l 1.01953,0 z"
         style=""
         id="path3502" />
      <path
         d="m 164.47365,977.77466 -1.58203,0 0,-10.08106 c -0.38087,0.36329 -0.88038,0.72658 -1.49854,1.08985 -0.61817,0.36329 -1.17334,0.63575 -1.66553,0.81738 l 0,-1.5293 c 0.88477,-0.416 1.6582,-0.91991 2.32032,-1.51172 0.6621,-0.59178 1.13085,-1.166 1.40625,-1.72265 l 1.01953,0 z"
         style=""
         id="path3504" />
      <path
         d="m 168.53419,971.42017 c 0,-1.52343 0.15674,-2.74951 0.47022,-3.67823 0.31347,-0.9287 0.77929,-1.645 1.39746,-2.14892 0.61816,-0.5039 1.39599,-0.75585 2.3335,-0.75586 0.6914,10e-6 1.29784,0.13917 1.81933,0.41748 0.52148,0.27833 0.95214,0.6797 1.29199,1.2041 0.33984,0.52443 0.60644,1.1631 0.79981,1.91602 0.19335,0.75293 0.29003,1.76807 0.29004,3.04541 -1e-5,1.51172 -0.15528,2.73193 -0.46582,3.66064 -0.31056,0.92871 -0.77491,1.64649 -1.39307,2.15332 -0.61817,0.50684 -1.39893,0.76025 -2.34228,0.76025 -1.24219,0 -2.21778,-0.44531 -2.92676,-1.33593 -0.84961,-1.07227 -1.27442,-2.81836 -1.27442,-5.23828 z m 1.62598,0 c 0,2.11523 0.24756,3.52295 0.74268,4.22314 0.49511,0.7002 1.10595,1.05029 1.83252,1.05029 0.72655,0 1.33739,-0.35156 1.83252,-1.05468 0.49511,-0.70313 0.74266,-2.10937 0.74267,-4.21875 -1e-5,-2.12109 -0.24756,-3.53027 -0.74267,-4.22754 -0.49513,-0.69726 -1.11183,-1.04589 -1.8501,-1.0459 -0.72657,10e-6 -1.30665,0.30763 -1.74024,0.92285 -0.54492,0.78517 -0.81738,2.23536 -0.81738,4.35059 z"
         style=""
         id="path3506" />
      <path
         d="m 177.93849,977.77466 3.41016,-4.85156 -3.15528,-4.48243 1.97754,0 1.43262,2.18848 c 0.26953,0.41602 0.48632,0.76466 0.65039,1.0459 0.25781,-0.38671 0.49511,-0.72949 0.71192,-1.02832 l 1.57324,-2.20606 1.88965,0 -3.22559,4.39454 3.47168,4.93945 -1.94238,0 -1.91602,-2.90039 -0.50976,-0.78223 -2.45215,3.68262 z"
         style=""
         id="path3508" />
      <path
         d="m 191.93068,977.77466 3.41016,-4.85156 -3.15528,-4.48243 1.97754,0 1.43262,2.18848 c 0.26953,0.41602 0.48632,0.76466 0.65039,1.0459 0.25781,-0.38671 0.49511,-0.72949 0.71191,-1.02832 l 1.57325,-2.20606 1.88964,0 -3.22558,4.39454 3.47168,4.93945 -1.94239,0 -1.91601,-2.90039 -0.50977,-0.78223 -2.45215,3.68262 z"
         style=""
         id="path3510" />
      <path
         d="m 200.93068,977.77466 3.41016,-4.85156 -3.15528,-4.48243 1.97754,0 1.43262,2.18848 c 0.26953,0.41602 0.48632,0.76466 0.65039,1.0459 0.25781,-0.38671 0.49511,-0.72949 0.71191,-1.02832 l 1.57325,-2.20606 1.88964,0 -3.22558,4.39454 3.47168,4.93945 -1.94239,0 -1.91601,-2.90039 -0.50977,-0.78223 -2.45215,3.68262 z"
         style=""
         id="path3512" />
      <path
         d="m 209.93068,977.77466 3.41016,-4.85156 -3.15528,-4.48243 1.97754,0 1.43262,2.18848 c 0.26953,0.41602 0.48632,0.76466 0.65039,1.0459 0.25781,-0.38671 0.49511,-0.72949 0.71191,-1.02832 l 1.57325,-2.20606 1.88964,0 -3.22558,4.39454 3.47168,4.93945 -1.94239,0 -1.91601,-2.90039 -0.50977,-0.78223 -2.45215,3.68262 z"
         style=""
         id="path3514" />
      <path
         d="m 218.93068,977.77466 3.41016,-4.85156 -3.15528,-4.48243 1.97754,0 1.43262,2.18848 c 0.26953,0.41602 0.48632,0.76466 0.65039,1.0459 0.25781,-0.38671 0.49511,-0.72949 0.71191,-1.02832 l 1.57325,-2.20606 1.88964,0 -3.22558,4.39454 3.47168,4.93945 -1.94239,0 -1.91601,-2.90039 -0.50977,-0.78223 -2.45215,3.68262 z"
         style=""
         id="path3516" />
    </g>
    <g
       style="font-size:18px"
       id="text2861">
      <path
         d="m 141.89085,923.8504 c 0,-1.52343 0.15674,-2.7495 0.47022,-3.67822 0.31347,-0.9287 0.77929,-1.64501 1.39746,-2.14893 0.61816,-0.50389 1.39599,-0.75584 2.3335,-0.75585 0.6914,1e-5 1.29784,0.13917 1.81933,0.41748 0.52148,0.27833 0.95214,0.67969 1.29199,1.2041 0.33984,0.52442 0.60644,1.16309 0.79981,1.91601 0.19335,0.75294 0.29003,1.76808 0.29004,3.04541 -1e-5,1.51173 -0.15528,2.73194 -0.46582,3.66065 -0.31056,0.92871 -0.77491,1.64648 -1.39307,2.15332 -0.61817,0.50683 -1.39893,0.76025 -2.34228,0.76025 -1.2422,0 -2.21778,-0.44531 -2.92676,-1.33594 -0.84961,-1.07226 -1.27442,-2.81835 -1.27442,-5.23828 z m 1.62598,0 c 0,2.11524 0.24756,3.52295 0.74268,4.22315 0.49511,0.70019 1.10595,1.05029 1.83252,1.05029 0.72655,0 1.33739,-0.35156 1.83252,-1.05469 0.49511,-0.70312 0.74266,-2.10937 0.74267,-4.21875 -10e-6,-2.12108 -0.24756,-3.53026 -0.74267,-4.22754 -0.49513,-0.69725 -1.11183,-1.04588 -1.8501,-1.04589 -0.72657,1e-5 -1.30665,0.30762 -1.74024,0.92285 -0.54492,0.78516 -0.81738,2.23536 -0.81738,4.35058 z"
         style="fill:#999999"
         id="path3469" />
      <path
         d="m 151.91039,923.8504 c -1e-5,-1.52343 0.15673,-2.7495 0.47021,-3.67822 0.31348,-0.9287 0.77929,-1.64501 1.39746,-2.14893 0.61816,-0.50389 1.39599,-0.75584 2.3335,-0.75585 0.6914,1e-5 1.29784,0.13917 1.81933,0.41748 0.52148,0.27833 0.95214,0.67969 1.292,1.2041 0.33983,0.52442 0.60643,1.16309 0.7998,1.91601 0.19335,0.75294 0.29003,1.76808 0.29004,3.04541 -10e-6,1.51173 -0.15528,2.73194 -0.46582,3.66065 -0.31056,0.92871 -0.77491,1.64648 -1.39307,2.15332 -0.61817,0.50683 -1.39893,0.76025 -2.34228,0.76025 -1.24219,0 -2.21778,-0.44531 -2.92676,-1.33594 -0.84961,-1.07226 -1.27442,-2.81835 -1.27441,-5.23828 z m 1.62597,0 c 0,2.11524 0.24756,3.52295 0.74268,4.22315 0.49511,0.70019 1.10595,1.05029 1.83252,1.05029 0.72655,0 1.33739,-0.35156 1.83252,-1.05469 0.49511,-0.70312 0.74266,-2.10937 0.74267,-4.21875 -1e-5,-2.12108 -0.24756,-3.53026 -0.74267,-4.22754 -0.49513,-0.69725 -1.11183,-1.04588 -1.8501,-1.04589 -0.72657,1e-5 -1.30665,0.30762 -1.74024,0.92285 -0.54492,0.78516 -0.81738,2.23536 -0.81738,4.35058 z"
         style="fill:#999999"
         id="path3471" />
      <path
         d="m 161.92992,923.8504 c 0,-1.52343 0.15673,-2.7495 0.47021,-3.67822 0.31348,-0.9287 0.7793,-1.64501 1.39746,-2.14893 0.61816,-0.50389 1.39599,-0.75584 2.3335,-0.75585 0.6914,1e-5 1.29784,0.13917 1.81933,0.41748 0.52148,0.27833 0.95214,0.67969 1.292,1.2041 0.33983,0.52442 0.60643,1.16309 0.7998,1.91601 0.19335,0.75294 0.29003,1.76808 0.29004,3.04541 -1e-5,1.51173 -0.15528,2.73194 -0.46582,3.66065 -0.31056,0.92871 -0.77491,1.64648 -1.39307,2.15332 -0.61817,0.50683 -1.39893,0.76025 -2.34228,0.76025 -1.24219,0 -2.21778,-0.44531 -2.92676,-1.33594 -0.84961,-1.07226 -1.27441,-2.81835 -1.27441,-5.23828 z m 1.62597,0 c 0,2.11524 0.24756,3.52295 0.74268,4.22315 0.49511,0.70019 1.10595,1.05029 1.83252,1.05029 0.72656,0 1.33739,-0.35156 1.83252,-1.05469 0.49511,-0.70312 0.74267,-2.10937 0.74267,-4.21875 0,-2.12108 -0.24756,-3.53026 -0.74267,-4.22754 -0.49513,-0.69725 -1.11182,-1.04588 -1.8501,-1.04589 -0.72657,1e-5 -1.30664,0.30762 -1.74023,0.92285 -0.54493,0.78516 -0.81739,2.23536 -0.81739,4.35058 z"
         style="fill:#999999"
         id="path3473" />
      <path
         d="m 171.94945,923.8504 c 0,-1.52343 0.15674,-2.7495 0.47021,-3.67822 0.31348,-0.9287 0.7793,-1.64501 1.39746,-2.14893 0.61816,-0.50389 1.396,-0.75584 2.3335,-0.75585 0.6914,1e-5 1.29784,0.13917 1.81934,0.41748 0.52147,0.27833 0.95214,0.67969 1.29199,1.2041 0.33983,0.52442 0.60643,1.16309 0.7998,1.91601 0.19335,0.75294 0.29003,1.76808 0.29004,3.04541 -1e-5,1.51173 -0.15528,2.73194 -0.46582,3.66065 -0.31055,0.92871 -0.77491,1.64648 -1.39307,2.15332 -0.61817,0.50683 -1.39893,0.76025 -2.34228,0.76025 -1.24219,0 -2.21778,-0.44531 -2.92676,-1.33594 -0.84961,-1.07226 -1.27441,-2.81835 -1.27441,-5.23828 z m 1.62597,0 c 0,2.11524 0.24756,3.52295 0.74268,4.22315 0.49511,0.70019 1.10595,1.05029 1.83252,1.05029 0.72656,0 1.3374,-0.35156 1.83252,-1.05469 0.49511,-0.70312 0.74267,-2.10937 0.74267,-4.21875 0,-2.12108 -0.24756,-3.53026 -0.74267,-4.22754 -0.49512,-0.69725 -1.11182,-1.04588 -1.8501,-1.04589 -0.72657,1e-5 -1.30664,0.30762 -1.74023,0.92285 -0.54493,0.78516 -0.81739,2.23536 -0.81739,4.35058 z"
         style="fill:#999999"
         id="path3475" />
      <path
         d="m 186.96117,923.8504 c 0,-1.52343 0.15673,-2.7495 0.47021,-3.67822 0.31348,-0.9287 0.7793,-1.64501 1.39746,-2.14893 0.61816,-0.50389 1.39599,-0.75584 2.3335,-0.75585 0.6914,1e-5 1.29784,0.13917 1.81933,0.41748 0.52148,0.27833 0.95214,0.67969 1.292,1.2041 0.33983,0.52442 0.60643,1.16309 0.7998,1.91601 0.19335,0.75294 0.29003,1.76808 0.29004,3.04541 -1e-5,1.51173 -0.15528,2.73194 -0.46582,3.66065 -0.31056,0.92871 -0.77491,1.64648 -1.39307,2.15332 -0.61817,0.50683 -1.39893,0.76025 -2.34228,0.76025 -1.24219,0 -2.21778,-0.44531 -2.92676,-1.33594 -0.84961,-1.07226 -1.27441,-2.81835 -1.27441,-5.23828 z m 1.62597,0 c 0,2.11524 0.24756,3.52295 0.74268,4.22315 0.49511,0.70019 1.10595,1.05029 1.83252,1.05029 0.72656,0 1.33739,-0.35156 1.83252,-1.05469 0.49511,-0.70312 0.74267,-2.10937 0.74267,-4.21875 0,-2.12108 -0.24756,-3.53026 -0.74267,-4.22754 -0.49513,-0.69725 -1.11182,-1.04588 -1.8501,-1.04589 -0.72657,1e-5 -1.30664,0.30762 -1.74023,0.92285 -0.54493,0.78516 -0.81739,2.23536 -0.81739,4.35058 z"
         style="fill:#999999"
         id="path3477" />
      <path
         d="m 196.9807,923.8504 c 0,-1.52343 0.15674,-2.7495 0.47021,-3.67822 0.31348,-0.9287 0.7793,-1.64501 1.39746,-2.14893 0.61816,-0.50389 1.396,-0.75584 2.3335,-0.75585 0.6914,1e-5 1.29784,0.13917 1.81934,0.41748 0.52147,0.27833 0.95214,0.67969 1.29199,1.2041 0.33983,0.52442 0.60643,1.16309 0.7998,1.91601 0.19335,0.75294 0.29003,1.76808 0.29004,3.04541 -1e-5,1.51173 -0.15528,2.73194 -0.46582,3.66065 -0.31055,0.92871 -0.77491,1.64648 -1.39307,2.15332 -0.61817,0.50683 -1.39893,0.76025 -2.34228,0.76025 -1.24219,0 -2.21778,-0.44531 -2.92676,-1.33594 -0.84961,-1.07226 -1.27441,-2.81835 -1.27441,-5.23828 z m 1.62597,0 c 0,2.11524 0.24756,3.52295 0.74268,4.22315 0.49511,0.70019 1.10595,1.05029 1.83252,1.05029 0.72656,0 1.3374,-0.35156 1.83252,-1.05469 0.49511,-0.70312 0.74267,-2.10937 0.74267,-4.21875 0,-2.12108 -0.24756,-3.53026 -0.74267,-4.22754 -0.49512,-0.69725 -1.11182,-1.04588 -1.8501,-1.04589 -0.72657,1e-5 -1.30664,0.30762 -1.74023,0.92285 -0.54493,0.78516 -0.81739,2.23536 -0.81739,4.35058 z"
         style="fill:#ff2a2a"
         id="path3479" />
      <path
         d="m 207.00023,923.8504 c 0,-1.52343 0.15674,-2.7495 0.47021,-3.67822 0.31348,-0.9287 0.7793,-1.64501 1.39746,-2.14893 0.61817,-0.50389 1.396,-0.75584 2.3335,-0.75585 0.6914,1e-5 1.29785,0.13917 1.81934,0.41748 0.52147,0.27833 0.95214,0.67969 1.29199,1.2041 0.33983,0.52442 0.60644,1.16309 0.7998,1.91601 0.19335,0.75294 0.29003,1.76808 0.29004,3.04541 -1e-5,1.51173 -0.15528,2.73194 -0.46582,3.66065 -0.31055,0.92871 -0.77491,1.64648 -1.39306,2.15332 -0.61817,0.50683 -1.39894,0.76025 -2.34229,0.76025 -1.24219,0 -2.21778,-0.44531 -2.92676,-1.33594 -0.84961,-1.07226 -1.27441,-2.81835 -1.27441,-5.23828 z m 1.62598,0 c -10e-6,2.11524 0.24755,3.52295 0.74267,4.22315 0.49511,0.70019 1.10595,1.05029 1.83252,1.05029 0.72656,0 1.3374,-0.35156 1.83252,-1.05469 0.49511,-0.70312 0.74267,-2.10937 0.74268,-4.21875 -1e-5,-2.12108 -0.24757,-3.53026 -0.74268,-4.22754 -0.49512,-0.69725 -1.11182,-1.04588 -1.8501,-1.04589 -0.72656,1e-5 -1.30664,0.30762 -1.74023,0.92285 -0.54493,0.78516 -0.81739,2.23536 -0.81738,4.35058 z"
         style="fill:#ff2a2a"
         id="path3481" />
      <path
         d="m 217.01976,923.8504 c 0,-1.52343 0.15674,-2.7495 0.47021,-3.67822 0.31348,-0.9287 0.7793,-1.64501 1.39747,-2.14893 0.61816,-0.50389 1.39599,-0.75584 2.33349,-0.75585 0.6914,1e-5 1.29785,0.13917 1.81934,0.41748 0.52148,0.27833 0.95214,0.67969 1.29199,1.2041 0.33984,0.52442 0.60644,1.16309 0.7998,1.91601 0.19336,0.75294 0.29003,1.76808 0.29004,3.04541 -1e-5,1.51173 -0.15528,2.73194 -0.46582,3.66065 -0.31055,0.92871 -0.77491,1.64648 -1.39306,2.15332 -0.61817,0.50683 -1.39893,0.76025 -2.34229,0.76025 -1.24219,0 -2.21777,-0.44531 -2.92676,-1.33594 -0.84961,-1.07226 -1.27441,-2.81835 -1.27441,-5.23828 z m 1.62598,0 c -1e-5,2.11524 0.24755,3.52295 0.74267,4.22315 0.49512,0.70019 1.10596,1.05029 1.83252,1.05029 0.72656,0 1.3374,-0.35156 1.83252,-1.05469 0.49511,-0.70312 0.74267,-2.10937 0.74268,-4.21875 -1e-5,-2.12108 -0.24757,-3.53026 -0.74268,-4.22754 -0.49512,-0.69725 -1.11182,-1.04588 -1.8501,-1.04589 -0.72656,1e-5 -1.30664,0.30762 -1.74023,0.92285 -0.54493,0.78516 -0.81739,2.23536 -0.81738,4.35058 z"
         style="fill:#ff2a2a"
         id="path3483" />
      <path
         d="m 237.99046,930.2049 -1.58203,0 0,-10.08106 c -0.38086,0.36329 -0.88037,0.72657 -1.49853,1.08984 -0.61817,0.36329 -1.17335,0.63575 -1.66553,0.81739 l 0,-1.5293 c 0.88476,-0.41601 1.6582,-0.91991 2.32031,-1.51172 0.66211,-0.59178 1.13086,-1.166 1.40625,-1.72265 l 1.01953,0 z"
         style="fill:#ff2a2a"
         id="path3485" />
      <path
         d="m 248.00999,930.2049 -1.58203,0 0,-10.08106 c -0.38086,0.36329 -0.88037,0.72657 -1.49853,1.08984 -0.61817,0.36329 -1.17334,0.63575 -1.66553,0.81739 l 0,-1.5293 c 0.88476,-0.41601 1.6582,-0.91991 2.32031,-1.51172 0.66211,-0.59178 1.13086,-1.166 1.40625,-1.72265 l 1.01953,0 z"
         style="fill:#ff2a2a"
         id="path3487" />
      <path
         d="m 258.02953,930.2049 -1.58204,0 0,-10.08106 c -0.38086,0.36329 -0.88037,0.72657 -1.49853,1.08984 -0.61817,0.36329 -1.17334,0.63575 -1.66553,0.81739 l 0,-1.5293 c 0.88476,-0.41601 1.6582,-0.91991 2.32031,-1.51172 0.66211,-0.59178 1.13086,-1.166 1.40625,-1.72265 l 1.01954,0 z"
         style="fill:#0000ff"
         id="path3489" />
      <path
         d="m 268.04906,930.2049 -1.58203,0 0,-10.08106 c -0.38087,0.36329 -0.88038,0.72657 -1.49854,1.08984 -0.61817,0.36329 -1.17334,0.63575 -1.66553,0.81739 l 0,-1.5293 c 0.88477,-0.41601 1.6582,-0.91991 2.32032,-1.51172 0.6621,-0.59178 1.13085,-1.166 1.40625,-1.72265 l 1.01953,0 z"
         style="fill:#0000ff"
         id="path3491" />
      <path
         d="m 277.10179,923.8504 c 0,-1.52343 0.15674,-2.7495 0.47022,-3.67822 0.31347,-0.9287 0.77929,-1.64501 1.39746,-2.14893 0.61816,-0.50389 1.39599,-0.75584 2.33349,-0.75585 0.6914,1e-5 1.29785,0.13917 1.81934,0.41748 0.52148,0.27833 0.95214,0.67969 1.29199,1.2041 0.33984,0.52442 0.60644,1.16309 0.79981,1.91601 0.19335,0.75294 0.29003,1.76808 0.29004,3.04541 -1e-5,1.51173 -0.15529,2.73194 -0.46583,3.66065 -0.31055,0.92871 -0.77491,1.64648 -1.39306,2.15332 -0.61817,0.50683 -1.39893,0.76025 -2.34229,0.76025 -1.24219,0 -2.21777,-0.44531 -2.92675,-1.33594 -0.84962,-1.07226 -1.27442,-2.81835 -1.27442,-5.23828 z m 1.62598,0 c 0,2.11524 0.24755,3.52295 0.74267,4.22315 0.49512,0.70019 1.10596,1.05029 1.83252,1.05029 0.72656,0 1.3374,-0.35156 1.83252,-1.05469 0.49511,-0.70312 0.74267,-2.10937 0.74268,-4.21875 -10e-6,-2.12108 -0.24757,-3.53026 -0.74268,-4.22754 -0.49512,-0.69725 -1.11182,-1.04588 -1.85009,-1.04589 -0.72657,1e-5 -1.30665,0.30762 -1.74024,0.92285 -0.54492,0.78516 -0.81738,2.23536 -0.81738,4.35058 z"
         style="fill:#0000ff"
         id="path3493" />
      <path
         d="m 287.12132,923.8504 c 0,-1.52343 0.15674,-2.7495 0.47022,-3.67822 0.31347,-0.9287 0.77929,-1.64501 1.39746,-2.14893 0.61816,-0.50389 1.39599,-0.75584 2.33349,-0.75585 0.69141,1e-5 1.29785,0.13917 1.81934,0.41748 0.52148,0.27833 0.95214,0.67969 1.29199,1.2041 0.33984,0.52442 0.60644,1.16309 0.79981,1.91601 0.19335,0.75294 0.29003,1.76808 0.29004,3.04541 -10e-6,1.51173 -0.15529,2.73194 -0.46582,3.66065 -0.31056,0.92871 -0.77491,1.64648 -1.39307,2.15332 -0.61817,0.50683 -1.39893,0.76025 -2.34229,0.76025 -1.24219,0 -2.21777,-0.44531 -2.92675,-1.33594 -0.84961,-1.07226 -1.27442,-2.81835 -1.27442,-5.23828 z m 1.62598,0 c 0,2.11524 0.24756,3.52295 0.74267,4.22315 0.49512,0.70019 1.10596,1.05029 1.83252,1.05029 0.72656,0 1.3374,-0.35156 1.83252,-1.05469 0.49511,-0.70312 0.74267,-2.10937 0.74268,-4.21875 -1e-5,-2.12108 -0.24757,-3.53026 -0.74268,-4.22754 -0.49512,-0.69725 -1.11182,-1.04588 -1.85009,-1.04589 -0.72657,1e-5 -1.30665,0.30762 -1.74024,0.92285 -0.54492,0.78516 -0.81738,2.23536 -0.81738,4.35058 z"
         style="fill:#0000ff"
         id="path3495" />
      <path
         d="m 297.14085,923.8504 c 0,-1.52343 0.15674,-2.7495 0.47022,-3.67822 0.31347,-0.9287 0.77929,-1.64501 1.39746,-2.14893 0.61816,-0.50389 1.39599,-0.75584 2.3335,-0.75585 0.6914,1e-5 1.29784,0.13917 1.81933,0.41748 0.52148,0.27833 0.95214,0.67969 1.29199,1.2041 0.33984,0.52442 0.60644,1.16309 0.79981,1.91601 0.19335,0.75294 0.29003,1.76808 0.29004,3.04541 -1e-5,1.51173 -0.15528,2.73194 -0.46582,3.66065 -0.31056,0.92871 -0.77491,1.64648 -1.39307,2.15332 -0.61817,0.50683 -1.39893,0.76025 -2.34228,0.76025 -1.2422,0 -2.21778,-0.44531 -2.92676,-1.33594 -0.84961,-1.07226 -1.27442,-2.81835 -1.27442,-5.23828 z m 1.62598,0 c 0,2.11524 0.24756,3.52295 0.74268,4.22315 0.49511,0.70019 1.10595,1.05029 1.83252,1.05029 0.72655,0 1.33739,-0.35156 1.83252,-1.05469 0.49511,-0.70312 0.74266,-2.10937 0.74267,-4.21875 -10e-6,-2.12108 -0.24756,-3.53026 -0.74267,-4.22754 -0.49513,-0.69725 -1.11183,-1.04588 -1.8501,-1.04589 -0.72657,1e-5 -1.30665,0.30762 -1.74024,0.92285 -0.54492,0.78516 -0.81738,2.23536 -0.81738,4.35058 z"
         style="fill:#0000ff"
         id="path3497" />
      <path
         d="m 313.11937,930.2049 -1.58203,0 0,-10.08106 c -0.38087,0.36329 -0.88038,0.72657 -1.49854,1.08984 -0.61816,0.36329 -1.17334,0.63575 -1.66552,0.81739 l 0,-1.5293 c 0.88476,-0.41601 1.6582,-0.91991 2.32031,-1.51172 0.6621,-0.59178 1.13085,-1.166 1.40625,-1.72265 l 1.01953,0 z"
         style="fill:#0000ff"
         id="path3499" />
    </g>
    <g
       transform="matrix(0,0.62549,-1.5987466,0,0,0)"
       style="font-size:35.16892242px;font-style:normal;font-variant:normal;font-weight:normal;font-stretch:normal;text-align:start;line-height:125%;writing-mode:lr-tb;text-anchor:start;font-family:Times New Roman;-inkscape-font-specification:Times New Roman"
       id="text2832-4">
      <path
         d="m 1490.2012,-154.65296 0,-0.60103 c 1.9119,0.25188 3.466,1.02177 4.6623,2.30968 1.1964,1.28794 1.7945,2.72183 1.7945,4.30166 0,0.82429 -0.1316,1.78022 -0.3949,2.86778 -0.2633,1.0876 -0.395,1.93476 -0.395,2.54151 0,0.82428 0.3463,1.59417 1.0389,2.30967 0.6926,0.71553 1.6514,1.15342 2.8764,1.31369 l 0,0.70406 c -1.225,0.16028 -2.1838,0.59818 -2.8764,1.31368 -0.6926,0.71552 -1.0389,1.48542 -1.0389,2.30968 0,0.60676 0.1317,1.45679 0.395,2.55009 0.2633,1.09331 0.3949,2.0521 0.3949,2.87637 0,1.55695 -0.5981,2.98225 -1.7945,4.27591 -1.1963,1.29364 -2.7504,2.07212 -4.6623,2.33543 l 0,-0.60103 c 1.3395,-0.332 2.3212,-0.85862 2.9451,-1.57985 0.6239,-0.72125 0.9359,-1.52262 0.9359,-2.40413 0,-0.67545 -0.1317,-1.56554 -0.395,-2.6703 -0.2633,-1.10475 -0.3949,-2.04064 -0.3949,-2.80767 0,-1.16772 0.4264,-2.29536 1.2793,-3.38295 0.8529,-1.08757 2.1208,-1.92902 3.8037,-2.52433 -1.6486,-0.60675 -2.9079,-1.46536 -3.7779,-2.57585 -0.8701,-1.11046 -1.3051,-2.24384 -1.3051,-3.40012 0,-0.77846 0.1316,-1.72008 0.3949,-2.82485 0.2633,-1.10473 0.395,-1.99483 0.395,-2.67029 0,-0.87005 -0.312,-1.66856 -0.9359,-2.39554 -0.6239,-0.72694 -1.6056,-1.2507 -2.9451,-1.57127 z"
         style=""
         id="path3466" />
    </g>
    <g
       style="font-size:18px"
       id="text2824-17">
      <path
         d="m 130.01814,922.62872 -8.50782,0 0,-1.47656 8.50782,0 z m 0,3.91114 -8.50782,0 0,-1.47657 8.50782,0 z"
         style=""
         id="path3463" />
    </g>
    <g
       style="font-size:18px"
       id="text2871">
      <path
         d="m 221.59416,945.01666 0.35156,0.35157 -13.14843,13.13085 3.5332,-0.38671 0.0703,0.3164 -6.3457,2.40821 2.39062,-6.32813 0.35157,0.0703 -0.35157,3.58594 z"
         style=""
         id="path3460" />
    </g>
    <g
       style="font-size:18px"
       id="text2824-1-5">
      <path
         d="m 281.78452,977.77466 -1.58204,0 0,-10.08106 c -0.38086,0.36329 -0.88037,0.72658 -1.49853,1.08985 -0.61817,0.36329 -1.17334,0.63575 -1.66553,0.81738 l 0,-1.5293 c 0.88476,-0.416 1.6582,-0.91991 2.32031,-1.51172 0.66211,-0.59178 1.13086,-1.166 1.40625,-1.72265 l 1.01954,0 z"
         style=""
         id="path3443" />
      <path
         d="m 285.84506,971.42017 c 0,-1.52343 0.15674,-2.74951 0.47022,-3.67823 0.31347,-0.9287 0.77929,-1.645 1.39746,-2.14892 0.61816,-0.5039 1.39599,-0.75585 2.33349,-0.75586 0.6914,10e-6 1.29785,0.13917 1.81934,0.41748 0.52148,0.27833 0.95214,0.6797 1.29199,1.2041 0.33984,0.52443 0.60644,1.1631 0.79981,1.91602 0.19335,0.75293 0.29003,1.76807 0.29004,3.04541 -10e-6,1.51172 -0.15529,2.73193 -0.46582,3.66064 -0.31056,0.92871 -0.77491,1.64649 -1.39307,2.15332 -0.61817,0.50684 -1.39893,0.76025 -2.34229,0.76025 -1.24219,0 -2.21777,-0.44531 -2.92675,-1.33593 -0.84961,-1.07227 -1.27442,-2.81836 -1.27442,-5.23828 z m 1.62598,0 c 0,2.11523 0.24755,3.52295 0.74267,4.22314 0.49512,0.7002 1.10596,1.05029 1.83252,1.05029 0.72656,0 1.3374,-0.35156 1.83252,-1.05468 0.49511,-0.70313 0.74267,-2.10937 0.74268,-4.21875 -10e-6,-2.12109 -0.24757,-3.53027 -0.74268,-4.22754 -0.49512,-0.69726 -1.11182,-1.04589 -1.85009,-1.0459 -0.72657,10e-6 -1.30665,0.30763 -1.74024,0.92285 -0.54492,0.78517 -0.81738,2.23536 -0.81738,4.35059 z"
         style=""
         id="path3445" />
      <path
         d="m 295.24936,977.77466 3.41016,-4.85156 -3.15528,-4.48243 1.97754,0 1.43262,2.18848 c 0.26953,0.41602 0.48632,0.76466 0.65039,1.0459 0.25781,-0.38671 0.49511,-0.72949 0.71191,-1.02832 l 1.57325,-2.20606 1.88964,0 -3.22558,4.39454 3.47168,4.93945 -1.94239,0 -1.91601,-2.90039 -0.50977,-0.78223 -2.45215,3.68262 z"
         style="fill:#0000ff"
         id="path3447" />
      <path
         d="m 304.24936,977.77466 3.41016,-4.85156 -3.15528,-4.48243 1.97754,0 1.43262,2.18848 c 0.26953,0.41602 0.48632,0.76466 0.65039,1.0459 0.25781,-0.38671 0.49511,-0.72949 0.71191,-1.02832 l 1.57325,-2.20606 1.88964,0 -3.22558,4.39454 3.47168,4.93945 -1.94239,0 -1.91601,-2.90039 -0.50977,-0.78223 -2.45215,3.68262 z"
         style="fill:#0000ff"
         id="path3449" />
      <path
         d="m 318.24155,977.77466 3.41015,-4.85156 -3.15527,-4.48243 1.97754,0 1.43262,2.18848 c 0.26952,0.41602 0.48632,0.76466 0.65039,1.0459 0.2578,-0.38671 0.49511,-0.72949 0.71191,-1.02832 l 1.57324,-2.20606 1.88965,0 -3.22558,4.39454 3.47167,4.93945 -1.94238,0 -1.91601,-2.90039 -0.50977,-0.78223 -2.45215,3.68262 z"
         style="fill:#0000ff"
         id="path3451" />
      <path
         d="m 327.24155,977.77466 3.41015,-4.85156 -3.15527,-4.48243 1.97754,0 1.43262,2.18848 c 0.26952,0.41602 0.48632,0.76466 0.65039,1.0459 0.2578,-0.38671 0.49511,-0.72949 0.71191,-1.02832 l 1.57324,-2.20606 1.88965,0 -3.22558,4.39454 3.47167,4.93945 -1.94238,0 -1.91601,-2.90039 -0.50977,-0.78223 -2.45215,3.68262 z"
         style="fill:#0000ff"
         id="path3453" />
      <path
         d="m 336.24155,977.77466 3.41015,-4.85156 -3.15527,-4.48243 1.97754,0 1.43262,2.18848 c 0.26952,0.41602 0.48632,0.76466 0.65039,1.0459 0.2578,-0.38671 0.49511,-0.72949 0.71191,-1.02832 l 1.57324,-2.20606 1.88965,0 -3.22558,4.39454 3.47167,4.93945 -1.94238,0 -1.91601,-2.90039 -0.50977,-0.78223 -2.45215,3.68262 z"
         style="fill:#0000ff"
         id="path3455" />
      <path
         d="m 345.24155,977.77466 3.41015,-4.85156 -3.15527,-4.48243 1.97754,0 1.43262,2.18848 c 0.26952,0.41602 0.48632,0.76466 0.65039,1.0459 0.2578,-0.38671 0.49511,-0.72949 0.71191,-1.02832 l 1.57324,-2.20606 1.88965,0 -3.22558,4.39454 3.47167,4.93945 -1.94238,0 -1.91601,-2.90039 -0.50977,-0.78223 -2.45215,3.68262 z"
         style="fill:#0000ff"
         id="path3457" />
    </g>
    <g
       style="font-size:18px"
       id="text2824-1-1">
      <path
         d="m 168.43907,1018.2174 -1.58203,0 0,-10.081 c -0.38086,0.3632 -0.88037,0.7265 -1.49853,1.0898 -0.61817,0.3633 -1.17335,0.6357 -1.66553,0.8174 l 0,-1.5293 c 0.88476,-0.416 1.6582,-0.9199 2.32031,-1.5117 0.6621,-0.5918 1.13085,-1.166 1.40625,-1.7227 l 1.01953,0 z"
         style=""
         id="path3410" />
      <path
         d="m 178.4586,1018.2174 -1.58203,0 0,-10.081 c -0.38086,0.3632 -0.88037,0.7265 -1.49853,1.0898 -0.61817,0.3633 -1.17335,0.6357 -1.66553,0.8174 l 0,-1.5293 c 0.88476,-0.416 1.6582,-0.9199 2.32031,-1.5117 0.66211,-0.5918 1.13086,-1.166 1.40625,-1.7227 l 1.01953,0 z"
         style=""
         id="path3412" />
      <path
         d="m 182.51915,1011.8629 c 0,-1.5234 0.15674,-2.7495 0.47021,-3.6782 0.31348,-0.9287 0.7793,-1.645 1.39747,-2.1489 0.61816,-0.5039 1.39599,-0.7559 2.33349,-0.7559 0.6914,0 1.29785,0.1392 1.81934,0.4175 0.52147,0.2783 0.95214,0.6797 1.29199,1.2041 0.33984,0.5244 0.60644,1.1631 0.7998,1.916 0.19335,0.7529 0.29003,1.7681 0.29004,3.0454 -1e-5,1.5117 -0.15528,2.732 -0.46582,3.6607 -0.31055,0.9287 -0.77491,1.6464 -1.39306,2.1533 -0.61817,0.5068 -1.39893,0.7602 -2.34229,0.7602 -1.24219,0 -2.21777,-0.4453 -2.92676,-1.3359 -0.84961,-1.0723 -1.27441,-2.8184 -1.27441,-5.2383 z m 1.62598,0 c -1e-5,2.1153 0.24755,3.523 0.74267,4.2232 0.49512,0.7002 1.10595,1.0503 1.83252,1.0503 0.72656,0 1.3374,-0.3516 1.83252,-1.0547 0.49511,-0.7032 0.74267,-2.1094 0.74268,-4.2188 -1e-5,-2.1211 -0.24757,-3.5302 -0.74268,-4.2275 -0.49512,-0.6973 -1.11182,-1.0459 -1.8501,-1.0459 -0.72656,0 -1.30664,0.3076 -1.74023,0.9228 -0.54493,0.7852 -0.81739,2.2354 -0.81738,4.3506 z"
         style=""
         id="path3414" />
      <path
         d="m 192.53868,1011.8629 c 0,-1.5234 0.15674,-2.7495 0.47022,-3.6782 0.31347,-0.9287 0.77929,-1.645 1.39746,-2.1489 0.61816,-0.5039 1.39599,-0.7559 2.33349,-0.7559 0.6914,0 1.29785,0.1392 1.81934,0.4175 0.52148,0.2783 0.95214,0.6797 1.29199,1.2041 0.33984,0.5244 0.60644,1.1631 0.79981,1.916 0.19335,0.7529 0.29003,1.7681 0.29003,3.0454 0,1.5117 -0.15528,2.732 -0.46582,3.6607 -0.31055,0.9287 -0.77491,1.6464 -1.39306,2.1533 -0.61817,0.5068 -1.39893,0.7602 -2.34229,0.7602 -1.24219,0 -2.21777,-0.4453 -2.92675,-1.3359 -0.84962,-1.0723 -1.27442,-2.8184 -1.27442,-5.2383 z m 1.62598,0 c 0,2.1153 0.24755,3.523 0.74267,4.2232 0.49512,0.7002 1.10596,1.0503 1.83252,1.0503 0.72656,0 1.3374,-0.3516 1.83252,-1.0547 0.49511,-0.7032 0.74267,-2.1094 0.74268,-4.2188 -1e-5,-2.1211 -0.24757,-3.5302 -0.74268,-4.2275 -0.49512,-0.6973 -1.11182,-1.0459 -1.8501,-1.0459 -0.72656,0 -1.30664,0.3076 -1.74023,0.9228 -0.54492,0.7852 -0.81738,2.2354 -0.81738,4.3506 z"
         style=""
         id="path3416" />
      <path
         d="m 207.5504,1011.8629 c 0,-1.5234 0.15674,-2.7495 0.47021,-3.6782 0.31348,-0.9287 0.7793,-1.645 1.39747,-2.1489 0.61816,-0.5039 1.39599,-0.7559 2.33349,-0.7559 0.6914,0 1.29785,0.1392 1.81934,0.4175 0.52147,0.2783 0.95214,0.6797 1.29199,1.2041 0.33984,0.5244 0.60644,1.1631 0.7998,1.916 0.19335,0.7529 0.29003,1.7681 0.29004,3.0454 -1e-5,1.5117 -0.15528,2.732 -0.46582,3.6607 -0.31055,0.9287 -0.77491,1.6464 -1.39306,2.1533 -0.61817,0.5068 -1.39893,0.7602 -2.34229,0.7602 -1.24219,0 -2.21777,-0.4453 -2.92676,-1.3359 -0.84961,-1.0723 -1.27441,-2.8184 -1.27441,-5.2383 z m 1.62598,0 c -1e-5,2.1153 0.24755,3.523 0.74267,4.2232 0.49512,0.7002 1.10595,1.0503 1.83252,1.0503 0.72656,0 1.3374,-0.3516 1.83252,-1.0547 0.49511,-0.7032 0.74267,-2.1094 0.74268,-4.2188 -1e-5,-2.1211 -0.24757,-3.5302 -0.74268,-4.2275 -0.49512,-0.6973 -1.11182,-1.0459 -1.8501,-1.0459 -0.72656,0 -1.30664,0.3076 -1.74023,0.9228 -0.54493,0.7852 -0.81739,2.2354 -0.81738,4.3506 z"
         style=""
         id="path3418" />
      <path
         d="m 217.56993,1011.8629 c 0,-1.5234 0.15674,-2.7495 0.47022,-3.6782 0.31347,-0.9287 0.77929,-1.645 1.39746,-2.1489 0.61816,-0.5039 1.39599,-0.7559 2.33349,-0.7559 0.6914,0 1.29785,0.1392 1.81934,0.4175 0.52148,0.2783 0.95214,0.6797 1.29199,1.2041 0.33984,0.5244 0.60644,1.1631 0.79981,1.916 0.19335,0.7529 0.29003,1.7681 0.29003,3.0454 0,1.5117 -0.15528,2.732 -0.46582,3.6607 -0.31055,0.9287 -0.77491,1.6464 -1.39306,2.1533 -0.61817,0.5068 -1.39893,0.7602 -2.34229,0.7602 -1.24219,0 -2.21777,-0.4453 -2.92675,-1.3359 -0.84962,-1.0723 -1.27442,-2.8184 -1.27442,-5.2383 z m 1.62598,0 c 0,2.1153 0.24755,3.523 0.74267,4.2232 0.49512,0.7002 1.10596,1.0503 1.83252,1.0503 0.72656,0 1.3374,-0.3516 1.83252,-1.0547 0.49511,-0.7032 0.74267,-2.1094 0.74268,-4.2188 -1e-5,-2.1211 -0.24757,-3.5302 -0.74268,-4.2275 -0.49512,-0.6973 -1.11182,-1.0459 -1.8501,-1.0459 -0.72656,0 -1.30664,0.3076 -1.74023,0.9228 -0.54492,0.7852 -0.81738,2.2354 -0.81738,4.3506 z"
         style=""
         id="path3420" />
      <path
         d="m 233.54845,1018.2174 -1.58203,0 0,-10.081 c -0.38087,0.3632 -0.88038,0.7265 -1.49854,1.0898 -0.61817,0.3633 -1.17334,0.6357 -1.66553,0.8174 l 0,-1.5293 c 0.88477,-0.416 1.6582,-0.9199 2.32032,-1.5117 0.6621,-0.5918 1.13085,-1.166 1.40625,-1.7227 l 1.01953,0 z"
         style=""
         id="path3422" />
      <path
         d="m 243.56798,1018.2174 -1.58203,0 0,-10.081 c -0.38087,0.3632 -0.88038,0.7265 -1.49854,1.0898 -0.61817,0.3633 -1.17334,0.6357 -1.66553,0.8174 l 0,-1.5293 c 0.88477,-0.416 1.6582,-0.9199 2.32032,-1.5117 0.6621,-0.5918 1.13085,-1.166 1.40625,-1.7227 l 1.01953,0 z"
         style=""
         id="path3424" />
      <path
         d="m 258.5797,1018.2174 -1.58203,0 0,-10.081 c -0.38087,0.3632 -0.88038,0.7265 -1.49854,1.0898 -0.61817,0.3633 -1.17334,0.6357 -1.66553,0.8174 l 0,-1.5293 c 0.88477,-0.416 1.6582,-0.9199 2.32032,-1.5117 0.6621,-0.5918 1.13085,-1.166 1.40625,-1.7227 l 1.01953,0 z"
         style=""
         id="path3426" />
      <path
         d="m 262.64024,1011.8629 c 0,-1.5234 0.15674,-2.7495 0.47022,-3.6782 0.31347,-0.9287 0.77929,-1.645 1.39746,-2.1489 0.61816,-0.5039 1.39599,-0.7559 2.3335,-0.7559 0.6914,0 1.29784,0.1392 1.81933,0.4175 0.52148,0.2783 0.95214,0.6797 1.29199,1.2041 0.33984,0.5244 0.60644,1.1631 0.79981,1.916 0.19335,0.7529 0.29003,1.7681 0.29004,3.0454 -1e-5,1.5117 -0.15529,2.732 -0.46582,3.6607 -0.31056,0.9287 -0.77491,1.6464 -1.39307,2.1533 -0.61817,0.5068 -1.39893,0.7602 -2.34228,0.7602 -1.2422,0 -2.21778,-0.4453 -2.92676,-1.3359 -0.84961,-1.0723 -1.27442,-2.8184 -1.27442,-5.2383 z m 1.62598,0 c 0,2.1153 0.24756,3.523 0.74268,4.2232 0.49511,0.7002 1.10595,1.0503 1.83252,1.0503 0.72655,0 1.33739,-0.3516 1.83251,-1.0547 0.49511,-0.7032 0.74267,-2.1094 0.74268,-4.2188 -10e-6,-2.1211 -0.24757,-3.5302 -0.74268,-4.2275 -0.49512,-0.6973 -1.11182,-1.0459 -1.85009,-1.0459 -0.72657,0 -1.30665,0.3076 -1.74024,0.9228 -0.54492,0.7852 -0.81738,2.2354 -0.81738,4.3506 z"
         style=""
         id="path3428" />
      <path
         d="m 278.61876,1018.2174 -1.58203,0 0,-10.081 c -0.38087,0.3632 -0.88038,0.7265 -1.49854,1.0898 -0.61816,0.3633 -1.17334,0.6357 -1.66552,0.8174 l 0,-1.5293 c 0.88476,-0.416 1.65819,-0.9199 2.32031,-1.5117 0.6621,-0.5918 1.13085,-1.166 1.40625,-1.7227 l 1.01953,0 z"
         style=""
         id="path3430" />
      <path
         d="m 288.63829,1018.2174 -1.58203,0 0,-10.081 c -0.38086,0.3632 -0.88038,0.7265 -1.49854,1.0898 -0.61816,0.3633 -1.17334,0.6357 -1.66552,0.8174 l 0,-1.5293 c 0.88476,-0.416 1.6582,-0.9199 2.32031,-1.5117 0.6621,-0.5918 1.13085,-1.166 1.40625,-1.7227 l 1.01953,0 z"
         style=""
         id="path3432" />
      <path
         d="m 297.69102,1011.8629 c 0,-1.5234 0.15674,-2.7495 0.47022,-3.6782 0.31347,-0.9287 0.77929,-1.645 1.39746,-2.1489 0.61816,-0.5039 1.39599,-0.7559 2.3335,-0.7559 0.6914,0 1.29784,0.1392 1.81933,0.4175 0.52148,0.2783 0.95214,0.6797 1.29199,1.2041 0.33984,0.5244 0.60644,1.1631 0.79981,1.916 0.19335,0.7529 0.29003,1.7681 0.29004,3.0454 -10e-6,1.5117 -0.15528,2.732 -0.46582,3.6607 -0.31056,0.9287 -0.77491,1.6464 -1.39307,2.1533 -0.61817,0.5068 -1.39893,0.7602 -2.34228,0.7602 -1.24219,0 -2.21778,-0.4453 -2.92676,-1.3359 -0.84961,-1.0723 -1.27442,-2.8184 -1.27442,-5.2383 z m 1.62598,0 c 0,2.1153 0.24756,3.523 0.74268,4.2232 0.49511,0.7002 1.10595,1.0503 1.83252,1.0503 0.72655,0 1.33739,-0.3516 1.83252,-1.0547 0.49511,-0.7032 0.74266,-2.1094 0.74267,-4.2188 -1e-5,-2.1211 -0.24756,-3.5302 -0.74267,-4.2275 -0.49513,-0.6973 -1.11183,-1.0459 -1.8501,-1.0459 -0.72657,0 -1.30665,0.3076 -1.74024,0.9228 -0.54492,0.7852 -0.81738,2.2354 -0.81738,4.3506 z"
         style=""
         id="path3434" />
      <path
         d="m 307.71056,1011.8629 c 0,-1.5234 0.15673,-2.7495 0.47021,-3.6782 0.31348,-0.9287 0.7793,-1.645 1.39746,-2.1489 0.61816,-0.5039 1.39599,-0.7559 2.3335,-0.7559 0.6914,0 1.29784,0.1392 1.81933,0.4175 0.52148,0.2783 0.95214,0.6797 1.292,1.2041 0.33983,0.5244 0.60643,1.1631 0.7998,1.916 0.19335,0.7529 0.29003,1.7681 0.29004,3.0454 -1e-5,1.5117 -0.15528,2.732 -0.46582,3.6607 -0.31056,0.9287 -0.77491,1.6464 -1.39307,2.1533 -0.61817,0.5068 -1.39893,0.7602 -2.34228,0.7602 -1.24219,0 -2.21778,-0.4453 -2.92676,-1.3359 -0.84961,-1.0723 -1.27441,-2.8184 -1.27441,-5.2383 z m 1.62597,0 c 0,2.1153 0.24756,3.523 0.74268,4.2232 0.49511,0.7002 1.10595,1.0503 1.83252,1.0503 0.72655,0 1.33739,-0.3516 1.83252,-1.0547 0.49511,-0.7032 0.74267,-2.1094 0.74267,-4.2188 0,-2.1211 -0.24756,-3.5302 -0.74267,-4.2275 -0.49513,-0.6973 -1.11182,-1.0459 -1.8501,-1.0459 -0.72657,0 -1.30664,0.3076 -1.74023,0.9228 -0.54493,0.7852 -0.81739,2.2354 -0.81739,4.3506 z"
         style=""
         id="path3436" />
      <path
         d="m 317.73009,1011.8629 c 0,-1.5234 0.15673,-2.7495 0.47021,-3.6782 0.31348,-0.9287 0.7793,-1.645 1.39746,-2.1489 0.61816,-0.5039 1.396,-0.7559 2.3335,-0.7559 0.6914,0 1.29784,0.1392 1.81934,0.4175 0.52147,0.2783 0.95214,0.6797 1.29199,1.2041 0.33983,0.5244 0.60643,1.1631 0.7998,1.916 0.19335,0.7529 0.29003,1.7681 0.29004,3.0454 -10e-6,1.5117 -0.15528,2.732 -0.46582,3.6607 -0.31055,0.9287 -0.77491,1.6464 -1.39307,2.1533 -0.61817,0.5068 -1.39893,0.7602 -2.34228,0.7602 -1.24219,0 -2.21778,-0.4453 -2.92676,-1.3359 -0.84961,-1.0723 -1.27441,-2.8184 -1.27441,-5.2383 z m 1.62597,0 c 0,2.1153 0.24756,3.523 0.74268,4.2232 0.49511,0.7002 1.10595,1.0503 1.83252,1.0503 0.72656,0 1.3374,-0.3516 1.83252,-1.0547 0.49511,-0.7032 0.74267,-2.1094 0.74267,-4.2188 0,-2.1211 -0.24756,-3.5302 -0.74267,-4.2275 -0.49512,-0.6973 -1.11182,-1.0459 -1.8501,-1.0459 -0.72657,0 -1.30664,0.3076 -1.74023,0.9228 -0.54493,0.7852 -0.81739,2.2354 -0.81739,4.3506 z"
         style=""
         id="path3438" />
      <path
         d="m 333.7086,1018.2174 -1.58203,0 0,-10.081 c -0.38086,0.3632 -0.88037,0.7265 -1.49853,1.0898 -0.61817,0.3633 -1.17335,0.6357 -1.66553,0.8174 l 0,-1.5293 c 0.88476,-0.416 1.6582,-0.9199 2.32031,-1.5117 0.66211,-0.5918 1.13086,-1.166 1.40625,-1.7227 l 1.01953,0 z"
         style=""
         id="path3440" />
    </g>
    <g
       transform="scale(-1,1)"
       style="font-size:18px"
       id="text2871-1">
      <path
         d="m -286.41852,944.95856 0.35156,0.35156 -13.14843,13.13086 3.5332,-0.38672 0.0703,0.31641 -6.3457,2.4082 2.39062,-6.32813 0.35157,0.0703 -0.35157,3.58593 z"
         style=""
         id="path3407" />
    </g>
    <g
       transform="scale(-1,1)"
       style="font-size:18px"
       id="text2871-2">
      <path
         d="m -207.3214,985.07184 0.35157,0.35156 -13.14844,13.13086 3.5332,-0.38672 0.0703,0.31641 -6.3457,2.40825 2.39063,-6.32817 0.35156,0.0703 -0.35156,3.58594 z"
         style=""
         id="path3404" />
    </g>
    <g
       style="font-size:18px"
       id="text2871-1-2">
      <path
         d="m 301.21185,985.27124 0.35157,0.35156 -13.14844,13.13086 3.5332,-0.38672 0.0703,0.31641 -6.3457,2.40825 2.39063,-6.32817 0.35156,0.0703 -0.35156,3.58594 z"
         style=""
         id="path3401" />
    </g>
    <g
       style="font-size:10px;font-style:normal;font-variant:normal;font-weight:normal;font-stretch:normal;text-align:start;line-height:125%;writing-mode:lr-tb;text-anchor:start;fill:#999999;font-family:Arial;-inkscape-font-specification:Arial"
       id="text3585">
      <path
         d="m 142.42455,911.31708 c -1e-5,-0.84635 0.0871,-1.5275 0.26123,-2.04346 0.17415,-0.51594 0.43294,-0.91389 0.77636,-1.19385 0.34343,-0.27994 0.77555,-0.41991 1.29639,-0.41992 0.38411,10e-6 0.72102,0.0773 1.01074,0.23193 0.28971,0.15463 0.52897,0.37762 0.71778,0.66895 0.18879,0.29135 0.3369,0.64616 0.44433,1.06445 0.10742,0.4183 0.16113,0.98227 0.16113,1.6919 0,0.83984 -0.0863,1.51774 -0.25879,2.03369 -0.17253,0.51595 -0.4305,0.91471 -0.77392,1.19629 -0.34343,0.28157 -0.77719,0.42236 -1.30127,0.42236 -0.69011,0 -1.2321,-0.24739 -1.62598,-0.74219 -0.472,-0.5957 -0.70801,-1.56575 -0.708,-2.91015 z m 0.90332,0 c -1e-5,1.17513 0.13753,1.95719 0.41259,2.34619 0.27507,0.389 0.61442,0.5835 1.01807,0.5835 0.40364,0 0.743,-0.19532 1.01807,-0.58594 0.27506,-0.39063 0.41259,-1.17188 0.41259,-2.34375 0,-1.17838 -0.13753,-1.96126 -0.41259,-2.34864 -0.27507,-0.38736 -0.61768,-0.58104 -1.02784,-0.58105 -0.40364,10e-6 -0.72591,0.1709 -0.96679,0.5127 -0.30274,0.4362 -0.45411,1.24186 -0.4541,2.41699 z"
         style=""
         id="path3398" />
    </g>
    <g
       style="font-size:10px;font-style:normal;font-variant:normal;font-weight:normal;font-stretch:normal;text-align:start;line-height:125%;writing-mode:lr-tb;text-anchor:start;fill:#999999;font-family:Arial;-inkscape-font-specification:Arial"
       id="text3585-1">
      <path
         d="m 188.35222,911.31708 c 0,-0.84635 0.0871,-1.5275 0.26123,-2.04346 0.17415,-0.51594 0.43294,-0.91389 0.77637,-1.19385 0.34342,-0.27994 0.77555,-0.41991 1.29638,-0.41992 0.38411,10e-6 0.72103,0.0773 1.01075,0.23193 0.2897,0.15463 0.52896,0.37762 0.71777,0.66895 0.1888,0.29135 0.33691,0.64616 0.44433,1.06445 0.10742,0.4183 0.16113,0.98227 0.16114,1.6919 -1e-5,0.83984 -0.0863,1.51774 -0.25879,2.03369 -0.17253,0.51595 -0.43051,0.91471 -0.77393,1.19629 -0.34343,0.28157 -0.77718,0.42236 -1.30127,0.42236 -0.6901,0 -1.23209,-0.24739 -1.62597,-0.74219 -0.47201,-0.5957 -0.70801,-1.56575 -0.70801,-2.91015 z m 0.90332,0 c 0,1.17513 0.13753,1.95719 0.4126,2.34619 0.27506,0.389 0.61441,0.5835 1.01806,0.5835 0.40365,0 0.743,-0.19532 1.01807,-0.58594 0.27506,-0.39063 0.41259,-1.17188 0.4126,-2.34375 -1e-5,-1.17838 -0.13754,-1.96126 -0.4126,-2.34864 -0.27507,-0.38736 -0.61768,-0.58104 -1.02783,-0.58105 -0.40365,10e-6 -0.72592,0.1709 -0.9668,0.5127 -0.30274,0.4362 -0.4541,1.24186 -0.4541,2.41699 z"
         style=""
         id="path3395" />
    </g>
    <g
       style="font-size:10px;font-style:normal;font-variant:normal;font-weight:normal;font-stretch:normal;text-align:start;line-height:125%;writing-mode:lr-tb;text-anchor:start;fill:#999999;font-family:Arial;-inkscape-font-specification:Arial"
       id="text3585-5">
      <path
         d="m 234.12605,914.84735 0,-7.1582 4.8291,0 0,0.84472 -3.88183,0 0,2.2168 3.35937,0 0,0.84473 -3.35937,0 0,3.25195 z"
         style=""
         id="path3392" />
    </g>
    <g
       style="font-size:10px;font-style:normal;font-variant:normal;font-weight:normal;font-stretch:normal;text-align:start;line-height:125%;writing-mode:lr-tb;text-anchor:start;fill:#999999;font-family:Arial;-inkscape-font-specification:Arial"
       id="text3585-18">
      <path
         d="m 280.98209,914.84735 -0.87891,0 0,-5.60058 c -0.21159,0.20182 -0.4891,0.40365 -0.83252,0.60546 -0.34343,0.20183 -0.65186,0.3532 -0.92529,0.45411 l 0,-0.84961 c 0.49153,-0.23112 0.92122,-0.51107 1.28906,-0.83985 0.36784,-0.32877 0.62825,-0.64778 0.78125,-0.95703 l 0.56641,0 z"
         style=""
         id="path3389" />
    </g>
    <path
       style="fill:#000000;stroke:#000000;stroke-width:1.19968045px;stroke-opacity:1"
       d="m 17.663472,843.66401 418.302058,0"
       id="path3644" />
    <g
       style="font-size:18px;font-style:normal;font-variant:normal;font-weight:normal;font-stretch:normal;text-align:start;line-height:125%;writing-mode:lr-tb;text-anchor:start;font-family:Times New Roman;-inkscape-font-specification:Times New Roman"
       id="text4418">
      <path
         d="m 27.341793,824.8573 0.272461,4.05176 -0.272461,0 c -0.363292,-1.21288 -0.881846,-2.08593 -1.555664,-2.61914 -0.673837,-0.53319 -1.48243,-0.7998 -2.425781,-0.79981 -0.791022,1e-5 -1.505865,0.2007 -2.144532,0.60205 -0.638675,0.40138 -1.141116,1.04152 -1.507324,1.92041 -0.366213,0.87892 -0.549319,1.97169 -0.549316,3.27832 -3e-6,1.07813 0.172849,2.0127 0.518555,2.80371 0.345699,0.79102 0.865718,1.39747 1.560058,1.81934 0.694331,0.42188 1.48681,0.63281 2.377442,0.63281 0.773429,0 1.456046,-0.16552 2.047851,-0.49658 0.591787,-0.33105 1.242177,-0.98877 1.951172,-1.97314 l 0.272461,0.17578 c -0.597667,1.06055 -1.294932,1.83691 -2.091797,2.3291 -0.796883,0.49219 -1.743172,0.73828 -2.838867,0.73828 -1.974614,0 -3.503909,-0.73242 -4.587891,-2.19727 -0.808595,-1.08984 -1.212891,-2.37304 -1.21289,-3.8496 -1e-6,-1.18945 0.2666,-2.28222 0.799804,-3.27832 0.533201,-0.99609 1.267087,-1.76806 2.20166,-2.31592 0.934566,-0.54784 1.955561,-0.82177 3.062989,-0.82178 0.86132,10e-6 1.710929,0.21095 2.548828,0.63281 0.246084,0.12892 0.421865,0.19337 0.527344,0.19336 0.158193,10e-6 0.295888,-0.0557 0.413086,-0.16699 0.152333,-0.15819 0.260731,-0.37792 0.325195,-0.65918 z"
         style=""
         id="path3348" />
      <path
         d="m 35.111324,824.8573 c 1.546867,10e-6 2.887198,0.58741 4.020996,1.76221 1.133778,1.17481 1.700672,2.64112 1.700684,4.39892 -1.2e-5,1.81055 -0.571301,3.31348 -1.713867,4.50879 -1.142588,1.19531 -2.525399,1.79297 -4.148438,1.79297 -1.640629,0 -3.019046,-0.58301 -4.135254,-1.74902 -1.116212,-1.16602 -1.674317,-2.6748 -1.674316,-4.52637 -10e-7,-1.89257 0.64453,-3.43651 1.933594,-4.63184 1.119137,-1.03709 2.458003,-1.55565 4.016601,-1.55566 z m -0.166992,0.6416 c -1.066411,10e-6 -1.921879,0.39552 -2.566406,1.18652 -0.802738,0.98439 -1.204104,2.42579 -1.204102,4.32422 -2e-6,1.94532 0.416013,3.44239 1.248047,4.49121 0.638668,0.79688 1.482417,1.19532 2.53125,1.19532 1.119133,0 2.043449,-0.43653 2.772949,-1.30957 0.729483,-0.87305 1.094228,-2.25 1.094239,-4.13086 -1.1e-5,-2.03906 -0.401377,-3.55956 -1.204102,-4.56153 -0.64454,-0.79686 -1.535164,-1.1953 -2.671875,-1.19531 z"
         style=""
         id="path3350" />
      <path
         d="m 41.843746,837.04773 0,-0.3252 0.448242,0 c 0.503905,0 0.861327,-0.16113 1.072266,-0.48339 0.128904,-0.19336 0.193357,-0.62696 0.193359,-1.30079 l 0,-7.69921 c -2e-6,-0.74413 -0.08203,-1.20995 -0.246093,-1.39747 -0.228518,-0.2578 -0.568361,-0.3867 -1.019532,-0.38671 l -0.448242,0 0,-0.3252 4.851563,0 c 1.781243,10e-6 3.136222,0.20216 4.064941,0.60645 0.928701,0.4043 1.67577,1.07813 2.241211,2.02148 0.565418,0.94337 0.848132,2.03321 0.848145,3.26953 -1.3e-5,1.65821 -0.503918,3.04395 -1.511719,4.15723 -1.130869,1.24219 -2.853524,1.86328 -5.167969,1.86328 z m 3.401367,-0.86133 c 0.744137,0.16406 1.368159,0.2461 1.872071,0.2461 1.359368,0 2.487296,-0.47754 3.383789,-1.43262 0.896474,-0.95508 1.344716,-2.25 1.344726,-3.88477 -1e-5,-1.64647 -0.448252,-2.94432 -1.344726,-3.89355 -0.896493,-0.94921 -2.047859,-1.42382 -3.454102,-1.42383 -0.527349,10e-6 -1.127934,0.085 -1.801758,0.25488 z"
         style=""
         id="path3352" />
      <path
         d="m 60.098629,836.72253 0,0.3252 -5.106445,0 0,-0.3252 0.421875,0 c 0.492186,0 0.849607,-0.14355 1.072265,-0.43066 0.140623,-0.1875 0.210936,-0.63867 0.210938,-1.35352 l 0,-7.69921 c -2e-6,-0.60351 -0.03809,-1.00195 -0.114258,-1.19532 -0.0586,-0.14647 -0.178713,-0.27245 -0.360352,-0.37793 -0.257813,-0.14061 -0.527344,-0.21092 -0.808593,-0.21093 l -0.421875,0 0,-0.3252 5.106445,0 0,0.3252 -0.430664,0 c -0.486333,10e-6 -0.840825,0.14356 -1.063477,0.43066 -0.146488,0.18751 -0.21973,0.63868 -0.219726,1.35352 l 0,7.69921 c -4e-6,0.60352 0.03808,1.00196 0.114258,1.19532 0.05859,0.14648 0.181636,0.27246 0.36914,0.37793 0.251949,0.14062 0.51855,0.21093 0.799805,0.21093 z"
         style=""
         id="path3354" />
      <path
         d="m 64.238277,825.78015 0,4.68457 2.170899,0 c 0.49804,10e-6 0.862786,-0.10985 1.094238,-0.32959 0.231438,-0.21972 0.385247,-0.65478 0.461426,-1.30517 l 0.325195,0 0,4.03418 -0.325195,0 c -0.0059,-0.46289 -0.06592,-0.80273 -0.180176,-1.01954 -0.114265,-0.21679 -0.272468,-0.37938 -0.474609,-0.48779 -0.202155,-0.10839 -0.502448,-0.16259 -0.900879,-0.1626 l -2.170899,0 0,3.74414 c -3e-6,0.60352 0.03808,1.00196 0.114258,1.19532 0.05859,0.14648 0.181637,0.27246 0.369141,0.37793 0.257808,0.14062 0.527339,0.21093 0.808594,0.21093 l 0.430664,0 0,0.3252 -5.115235,0 0,-0.3252 0.421875,0 c 0.492187,0 0.849608,-0.14355 1.072266,-0.43066 0.140623,-0.1875 0.210935,-0.63867 0.210937,-1.35352 l 0,-7.69921 c -2e-6,-0.60351 -0.03809,-1.00195 -0.114257,-1.19532 -0.0586,-0.14647 -0.178713,-0.27245 -0.360352,-0.37793 -0.251954,-0.14061 -0.521485,-0.21092 -0.808594,-0.21093 l -0.421875,0 0,-0.3252 8.868164,0 0.114258,2.61914 -0.307617,0 c -0.152353,-0.55663 -0.329598,-0.96532 -0.531738,-1.22607 -0.202157,-0.26073 -0.45118,-0.4497 -0.747071,-0.5669 -0.295905,-0.11717 -0.754401,-0.17577 -1.375488,-0.17578 z"
         style=""
         id="path3356" />
      <path
         d="m 76.129879,836.72253 0,0.3252 -5.106445,0 0,-0.3252 0.421875,0 c 0.492186,0 0.849607,-0.14355 1.072265,-0.43066 0.140623,-0.1875 0.210936,-0.63867 0.210938,-1.35352 l 0,-7.69921 c -2e-6,-0.60351 -0.03809,-1.00195 -0.114258,-1.19532 -0.0586,-0.14647 -0.178713,-0.27245 -0.360352,-0.37793 -0.257813,-0.14061 -0.527344,-0.21092 -0.808593,-0.21093 l -0.421875,0 0,-0.3252 5.106445,0 0,0.3252 -0.430664,0 c -0.486333,10e-6 -0.840825,0.14356 -1.063477,0.43066 -0.146488,0.18751 -0.21973,0.63868 -0.219726,1.35352 l 0,7.69921 c -4e-6,0.60352 0.03808,1.00196 0.114258,1.19532 0.05859,0.14648 0.181636,0.27246 0.36914,0.37793 0.251949,0.14062 0.51855,0.21093 0.799805,0.21093 z"
         style=""
         id="path3358" />
      <path
         d="m 87.423824,824.8573 0.272461,4.05176 -0.272461,0 c -0.363291,-1.21288 -0.881846,-2.08593 -1.555664,-2.61914 -0.673836,-0.53319 -1.482429,-0.7998 -2.425781,-0.79981 -0.791022,1e-5 -1.505865,0.2007 -2.144531,0.60205 -0.638676,0.40138 -1.141117,1.04152 -1.507324,1.92041 -0.366214,0.87892 -0.54932,1.97169 -0.549317,3.27832 -3e-6,1.07813 0.172849,2.0127 0.518555,2.80371 0.345699,0.79102 0.865718,1.39747 1.560058,1.81934 0.694331,0.42188 1.486811,0.63281 2.377442,0.63281 0.773429,0 1.456046,-0.16552 2.047851,-0.49658 0.591787,-0.33105 1.242177,-0.98877 1.951172,-1.97314 l 0.272461,0.17578 c -0.597667,1.06055 -1.294932,1.83691 -2.091797,2.3291 -0.796883,0.49219 -1.743171,0.73828 -2.838867,0.73828 -1.974614,0 -3.503909,-0.73242 -4.587891,-2.19727 -0.808594,-1.08984 -1.212891,-2.37304 -1.21289,-3.8496 -10e-7,-1.18945 0.266601,-2.28222 0.799805,-3.27832 0.533201,-0.99609 1.267087,-1.76806 2.20166,-2.31592 0.934565,-0.54784 1.955561,-0.82177 3.062988,-0.82178 0.861321,10e-6 1.710929,0.21095 2.548828,0.63281 0.246084,0.12892 0.421865,0.19337 0.527344,0.19336 0.158193,10e-6 0.295888,-0.0557 0.413086,-0.16699 0.152333,-0.15819 0.260732,-0.37792 0.325195,-0.65918 z"
         style=""
         id="path3360" />
      <path
         d="m 96.845699,833.0575 -4.614258,0 -0.808593,1.88085 c -0.199222,0.4629 -0.298831,0.8086 -0.298828,1.03711 -3e-6,0.18165 0.08642,0.34131 0.259277,0.47901 0.172849,0.13769 0.546383,0.22705 1.120605,0.26806 l 0,0.3252 -3.752929,0 0,-0.3252 c 0.498046,-0.0879 0.820311,-0.20214 0.966797,-0.34277 0.298826,-0.28125 0.629881,-0.85254 0.993164,-1.71387 l 4.192382,-9.80859 0.307618,0 4.148437,9.91406 c 0.333973,0.79688 0.637196,1.31397 0.909669,1.55127 0.27245,0.23731 0.65184,0.37061 1.13818,0.3999 l 0,0.3252 -4.702146,0 0,-0.3252 c 0.474601,-0.0234 0.795402,-0.10253 0.962403,-0.2373 0.166983,-0.13477 0.250479,-0.29883 0.250488,-0.49219 -9e-6,-0.25781 -0.117197,-0.66504 -0.351563,-1.22168 z m -0.246093,-0.6504 -2.021485,-4.8164 -2.074219,4.8164 z"
         style=""
         id="path3362" />
      <path
         d="m 112.45507,824.8573 0.27247,4.05176 -0.27247,0 c -0.36329,-1.21288 -0.88184,-2.08593 -1.55566,-2.61914 -0.67384,-0.53319 -1.48243,-0.7998 -2.42578,-0.79981 -0.79102,1e-5 -1.50587,0.2007 -2.14453,0.60205 -0.63868,0.40138 -1.14112,1.04152 -1.50733,1.92041 -0.36621,0.87892 -0.54932,1.97169 -0.54931,3.27832 -10e-6,1.07813 0.17285,2.0127 0.51855,2.80371 0.3457,0.79102 0.86572,1.39747 1.56006,1.81934 0.69433,0.42188 1.48681,0.63281 2.37744,0.63281 0.77343,0 1.45605,-0.16552 2.04785,-0.49658 0.59179,-0.33105 1.24218,-0.98877 1.95118,-1.97314 L 113,834.25281 c -0.59767,1.06055 -1.29494,1.83691 -2.0918,2.3291 -0.79688,0.49219 -1.74317,0.73828 -2.83887,0.73828 -1.97461,0 -3.50391,-0.73242 -4.58789,-2.19727 -0.80859,-1.08984 -1.21289,-2.37304 -1.21289,-3.8496 0,-1.18945 0.2666,-2.28222 0.79981,-3.27832 0.5332,-0.99609 1.26708,-1.76806 2.20166,-2.31592 0.93456,-0.54784 1.95556,-0.82177 3.06298,-0.82178 0.86132,10e-6 1.71093,0.21095 2.54883,0.63281 0.24609,0.12892 0.42187,0.19337 0.52735,0.19336 0.15819,10e-6 0.29588,-0.0557 0.41308,-0.16699 0.15234,-0.15819 0.26073,-0.37792 0.3252,-0.65918 z"
         style=""
         id="path3364" />
      <path
         d="m 119.19629,836.72253 0,0.3252 -5.10645,0 0,-0.3252 0.42187,0 c 0.49219,0 0.84961,-0.14355 1.07227,-0.43066 0.14062,-0.1875 0.21094,-0.63867 0.21094,-1.35352 l 0,-7.69921 c 0,-0.60351 -0.0381,-1.00195 -0.11426,-1.19532 -0.0586,-0.14647 -0.17871,-0.27245 -0.36035,-0.37793 -0.25782,-0.14061 -0.52735,-0.21092 -0.8086,-0.21093 l -0.42187,0 0,-0.3252 5.10645,0 0,0.3252 -0.43067,0 c -0.48633,10e-6 -0.84082,0.14356 -1.06348,0.43066 -0.14648,0.18751 -0.21973,0.63868 -0.21972,1.35352 l 0,7.69921 c -1e-5,0.60352 0.0381,1.00196 0.11426,1.19532 0.0586,0.14648 0.18163,0.27246 0.36914,0.37793 0.25195,0.14062 0.51855,0.21093 0.7998,0.21093 z"
         style=""
         id="path3366" />
      <path
         d="m 126.23632,824.8573 c 1.54687,10e-6 2.8872,0.58741 4.021,1.76221 1.13378,1.17481 1.70067,2.64112 1.70068,4.39892 -1e-5,1.81055 -0.5713,3.31348 -1.71386,4.50879 -1.14259,1.19531 -2.5254,1.79297 -4.14844,1.79297 -1.64063,0 -3.01905,-0.58301 -4.13525,-1.74902 -1.11622,-1.16602 -1.67432,-2.6748 -1.67432,-4.52637 0,-1.89257 0.64453,-3.43651 1.93359,-4.63184 1.11914,-1.03709 2.45801,-1.55565 4.0166,-1.55566 z m -0.16699,0.6416 c -1.06641,10e-6 -1.92188,0.39552 -2.5664,1.18652 -0.80274,0.98439 -1.20411,2.42579 -1.20411,4.32422 0,1.94532 0.41602,3.44239 1.24805,4.49121 0.63867,0.79688 1.48242,1.19532 2.53125,1.19532 1.11913,0 2.04345,-0.43653 2.77295,-1.30957 0.72948,-0.87305 1.09423,-2.25 1.09424,-4.13086 -1e-5,-2.03906 -0.40138,-3.55956 -1.2041,-4.56153 -0.64454,-0.79686 -1.53517,-1.1953 -2.67188,-1.19531 z m 1.99512,-4.2539 -2.59277,3.03222 -0.29883,0 0.92285,-3.03222 z"
         style=""
         id="path3368" />
      <path
         d="m 132.42382,825.12976 3.23438,0 7.28613,8.93848 0,-6.87305 c -1e-5,-0.73241 -0.082,-1.18944 -0.24609,-1.37109 -0.21681,-0.24609 -0.55958,-0.36913 -1.02832,-0.36914 l -0.41309,0 0,-0.3252 4.14844,0 0,0.3252 -0.42188,0 c -0.50391,10e-6 -0.86133,0.15235 -1.07226,0.45703 -0.12892,0.18751 -0.19337,0.61524 -0.19336,1.2832 l 0,10.0459 -0.31641,0 -7.85742,-9.59766 0,7.33887 c 0,0.73242 0.0791,1.18945 0.23731,1.37109 0.22265,0.2461 0.56542,0.36914 1.02832,0.36914 l 0.42187,0 0,0.3252 -4.14844,0 0,-0.3252 0.41309,0 c 0.50976,0 0.87012,-0.15234 1.08105,-0.45703 0.12891,-0.1875 0.19336,-0.61523 0.19336,-1.2832 l 0,-8.28809 c -0.3457,-0.40428 -0.60791,-0.67088 -0.78662,-0.7998 -0.17871,-0.1289 -0.44092,-0.24901 -0.78662,-0.36035 -0.16992,-0.0527 -0.42773,-0.0791 -0.77344,-0.0791 z"
         style=""
         id="path3370" />
      <path
         d="m 161.00586,824.8573 0.27246,4.05176 -0.27246,0 c -0.3633,-1.21288 -0.88185,-2.08593 -1.55567,-2.61914 -0.67384,-0.53319 -1.48243,-0.7998 -2.42578,-0.79981 -0.79102,1e-5 -1.50586,0.2007 -2.14453,0.60205 -0.63868,0.40138 -1.14112,1.04152 -1.50733,1.92041 -0.36621,0.87892 -0.54931,1.97169 -0.54931,3.27832 0,1.07813 0.17285,2.0127 0.51855,2.80371 0.3457,0.79102 0.86572,1.39747 1.56006,1.81934 0.69433,0.42188 1.48681,0.63281 2.37744,0.63281 0.77343,0 1.45605,-0.16552 2.04785,-0.49658 0.59179,-0.33105 1.24218,-0.98877 1.95118,-1.97314 l 0.27246,0.17578 c -0.59767,1.06055 -1.29493,1.83691 -2.0918,2.3291 -0.79688,0.49219 -1.74317,0.73828 -2.83887,0.73828 -1.97461,0 -3.50391,-0.73242 -4.58789,-2.19727 -0.80859,-1.08984 -1.21289,-2.37304 -1.21289,-3.8496 0,-1.18945 0.2666,-2.28222 0.79981,-3.27832 0.5332,-0.99609 1.26708,-1.76806 2.20166,-2.31592 0.93456,-0.54784 1.95556,-0.82177 3.06299,-0.82178 0.86132,10e-6 1.71092,0.21095 2.54882,0.63281 0.24609,0.12892 0.42187,0.19337 0.52735,0.19336 0.15819,10e-6 0.29589,-0.0557 0.41308,-0.16699 0.15234,-0.15819 0.26073,-0.37792 0.3252,-0.65918 z"
         style=""
         id="path3372" />
      <path
         d="m 168.77539,824.8573 c 1.54686,10e-6 2.88719,0.58741 4.02099,1.76221 1.13378,1.17481 1.70067,2.64112 1.70069,4.39892 -2e-5,1.81055 -0.5713,3.31348 -1.71387,4.50879 -1.14259,1.19531 -2.5254,1.79297 -4.14844,1.79297 -1.64063,0 -3.01904,-0.58301 -4.13525,-1.74902 -1.11621,-1.16602 -1.67432,-2.6748 -1.67432,-4.52637 0,-1.89257 0.64453,-3.43651 1.9336,-4.63184 1.11913,-1.03709 2.458,-1.55565 4.0166,-1.55566 z m -0.167,0.6416 c -1.06641,10e-6 -1.92187,0.39552 -2.5664,1.18652 -0.80274,0.98439 -1.20411,2.42579 -1.2041,4.32422 -10e-6,1.94532 0.41601,3.44239 1.24804,4.49121 0.63867,0.79688 1.48242,1.19532 2.53125,1.19532 1.11914,0 2.04345,-0.43653 2.77295,-1.30957 0.72949,-0.87305 1.09423,-2.25 1.09424,-4.13086 -1e-5,-2.03906 -0.40138,-3.55956 -1.2041,-4.56153 -0.64454,-0.79686 -1.53516,-1.1953 -2.67188,-1.19531 z"
         style=""
         id="path3374" />
      <path
         d="m 174.96289,825.12976 3.23437,0 7.28613,8.93848 0,-6.87305 c -1e-5,-0.73241 -0.082,-1.18944 -0.24609,-1.37109 -0.21681,-0.24609 -0.55958,-0.36913 -1.02832,-0.36914 l -0.41309,0 0,-0.3252 4.14844,0 0,0.3252 -0.42187,0 c -0.50392,10e-6 -0.86134,0.15235 -1.07227,0.45703 -0.12892,0.18751 -0.19337,0.61524 -0.19336,1.2832 l 0,10.0459 -0.3164,0 -7.85743,-9.59766 0,7.33887 c 0,0.73242 0.0791,1.18945 0.23731,1.37109 0.22265,0.2461 0.56542,0.36914 1.02832,0.36914 l 0.42187,0 0,0.3252 -4.14843,0 0,-0.3252 0.41308,0 c 0.50977,0 0.87012,-0.15234 1.08106,-0.45703 0.1289,-0.1875 0.19335,-0.61523 0.19336,-1.2832 l 0,-8.28809 c -0.34571,-0.40428 -0.60792,-0.67088 -0.78662,-0.7998 -0.17872,-0.1289 -0.44092,-0.24901 -0.78663,-0.36035 -0.16992,-0.0527 -0.42773,-0.0791 -0.77343,-0.0791 z"
         style=""
         id="path3376" />
      <path
         d="m 201.29492,825.45496 0,-0.3252 4.21875,0 0,0.3252 -0.44824,0 c -0.46877,10e-6 -0.82912,0.1963 -1.08106,0.58886 -0.12306,0.18165 -0.18458,0.60353 -0.18457,1.26563 l 0,4.83398 c -1e-5,1.19532 -0.11866,2.12256 -0.35596,2.78174 -0.23731,0.65918 -0.70313,1.22461 -1.39746,1.69629 -0.69434,0.47168 -1.63916,0.70752 -2.83447,0.70752 -1.30079,0 -2.28809,-0.22559 -2.96191,-0.67676 -0.67383,-0.45117 -1.15137,-1.05761 -1.43262,-1.81933 -0.1875,-0.52149 -0.28125,-1.5 -0.28125,-2.93555 l 0,-4.6582 c 0,-0.73242 -0.10108,-1.21288 -0.30322,-1.44141 -0.20215,-0.2285 -0.52881,-0.34276 -0.97998,-0.34277 l -0.44825,0 0,-0.3252 5.15039,0 0,0.3252 -0.45703,0 c -0.49219,10e-6 -0.84375,0.15528 -1.05468,0.46582 -0.14649,0.21094 -0.21973,0.6504 -0.21973,1.31836 l 0,5.19433 c 0,0.4629 0.0425,0.99317 0.12744,1.59082 0.085,0.59766 0.23877,1.06348 0.46143,1.39746 0.22265,0.33399 0.54345,0.60938 0.9624,0.82617 0.41894,0.2168 0.9331,0.3252 1.54248,0.3252 0.77929,0 1.47655,-0.16992 2.0918,-0.50977 0.61522,-0.33984 1.03563,-0.7749 1.26123,-1.30517 0.22557,-0.53027 0.33836,-1.42822 0.33838,-2.69385 l 0,-4.82519 c -2e-5,-0.74413 -0.0821,-1.20995 -0.2461,-1.39747 -0.22852,-0.2578 -0.56837,-0.3867 -1.01953,-0.38671 z"
         style=""
         id="path3378" />
      <path
         d="m 216.13086,825.12976 0.13183,2.79492 -0.33398,0 c -0.0645,-0.49218 -0.15236,-0.84374 -0.26367,-1.05468 -0.18166,-0.33984 -0.42335,-0.59033 -0.7251,-0.75147 -0.30177,-0.16112 -0.69874,-0.24169 -1.19092,-0.2417 l -1.67871,0 0,9.10547 c -1e-5,0.73242 0.0791,1.18945 0.2373,1.37109 0.22265,0.2461 0.56543,0.36914 1.02832,0.36914 l 0.41309,0 0,0.3252 -5.05371,0 0,-0.3252 0.42187,0 c 0.50391,0 0.86133,-0.15234 1.07227,-0.45703 0.1289,-0.1875 0.19335,-0.61523 0.19336,-1.2832 l 0,-9.10547 -1.43262,0 c -0.55664,10e-6 -0.95215,0.041 -1.18652,0.12305 -0.30469,0.11134 -0.56543,0.3252 -0.78223,0.6416 -0.2168,0.31642 -0.3457,0.74415 -0.38672,1.2832 l -0.33398,0 0.14062,-2.79492 z"
         style=""
         id="path3380" />
      <path
         d="m 220.40234,825.78015 0,4.68457 2.1709,0 c 0.49804,10e-6 0.86278,-0.10985 1.09424,-0.32959 0.23143,-0.21972 0.38524,-0.65478 0.46142,-1.30517 l 0.3252,0 0,4.03418 -0.3252,0 c -0.006,-0.46289 -0.0659,-0.80273 -0.18017,-1.01954 -0.11427,-0.21679 -0.27247,-0.37938 -0.47461,-0.48779 -0.20216,-0.10839 -0.50245,-0.16259 -0.90088,-0.1626 l -2.1709,0 0,3.74414 c 0,0.60352 0.0381,1.00196 0.11426,1.19532 0.0586,0.14648 0.18163,0.27246 0.36914,0.37793 0.25781,0.14062 0.52734,0.21093 0.80859,0.21093 l 0.43067,0 0,0.3252 -5.11524,0 0,-0.3252 0.42188,0 c 0.49218,0 0.8496,-0.14355 1.07226,-0.43066 0.14063,-0.1875 0.21094,-0.63867 0.21094,-1.35352 l 0,-7.69921 c 0,-0.60351 -0.0381,-1.00195 -0.11426,-1.19532 -0.0586,-0.14647 -0.17871,-0.27245 -0.36035,-0.37793 -0.25195,-0.14061 -0.52148,-0.21092 -0.80859,-0.21093 l -0.42188,0 0,-0.3252 8.86817,0 0.11425,2.61914 -0.30761,0 c -0.15236,-0.55663 -0.3296,-0.96532 -0.53174,-1.22607 -0.20216,-0.26073 -0.45118,-0.4497 -0.74707,-0.5669 -0.29591,-0.11717 -0.7544,-0.17577 -1.37549,-0.17578 z"
         style=""
         id="path3382" />
      <path
         d="m 227.46875,832.34558 4.54394,0 0,1.32715 -4.54394,0 z"
         style=""
         id="path3384" />
      <path
         d="m 236.20507,831.0448 c -0.94336,-0.77343 -1.55127,-1.39452 -1.82373,-1.86328 -0.27246,-0.46874 -0.40869,-0.95507 -0.40869,-1.45899 0,-0.77342 0.29883,-1.43993 0.89649,-1.99951 0.59765,-0.55956 1.39159,-0.83934 2.38183,-0.83935 0.96093,10e-6 1.73437,0.26075 2.32032,0.78222 0.58593,0.5215 0.87889,1.11622 0.8789,1.78418 -1e-5,0.44532 -0.15821,0.89943 -0.47461,1.36231 -0.31641,0.4629 -0.97559,1.00782 -1.97754,1.63476 1.03125,0.79688 1.71386,1.42384 2.04785,1.88086 0.44531,0.59766 0.66797,1.22755 0.66797,1.88965 0,0.83789 -0.31934,1.5542 -0.958,2.14893 -0.63868,0.59472 -1.47657,0.89209 -2.51368,0.89209 -1.13086,0 -2.01269,-0.3545 -2.6455,-1.06348 -0.50391,-0.56836 -0.75586,-1.18945 -0.75586,-1.86328 0,-0.52734 0.17724,-1.05029 0.53173,-1.56885 0.35449,-0.51855 0.96533,-1.0913 1.83252,-1.71826 z m 1.37989,-0.94043 c 0.70312,-0.6328 1.14843,-1.13232 1.33593,-1.49854 0.1875,-0.3662 0.28125,-0.78075 0.28125,-1.24365 0,-0.61522 -0.17285,-1.09715 -0.51855,-1.4458 -0.34571,-0.34862 -0.81739,-0.52294 -1.41504,-0.52295 -0.59766,1e-5 -1.08399,0.17287 -1.45898,0.51856 -0.37501,0.34571 -0.56251,0.75001 -0.5625,1.21289 -1e-5,0.3047 0.0776,0.60938 0.23291,0.91406 0.15527,0.3047 0.37646,0.59474 0.66357,0.87012 z m -0.9668,1.27441 c -0.48633,0.41017 -0.84668,0.85694 -1.08105,1.34034 -0.23438,0.4834 -0.35157,1.00635 -0.35157,1.56884 0,0.75587 0.20654,1.36085 0.61963,1.81495 0.41308,0.4541 0.93896,0.68115 1.57764,0.68115 0.63281,0 1.13964,-0.17871 1.52051,-0.53614 0.38085,-0.35742 0.57128,-0.79101 0.57129,-1.30078 -1e-5,-0.42187 -0.11134,-0.7998 -0.33399,-1.13379 -0.41602,-0.62109 -1.25684,-1.43261 -2.52246,-2.43457 z"
         style=""
         id="path3386" />
    </g>
    <g
       style="font-size:18px"
       id="text2824-2">
      <path
         d="m 38.665447,1017.9159 0,-9.334 1.423828,0 0,1.3272 c 0.685544,-1.0254 1.675777,-1.5381 2.970703,-1.5381 0.562494,0 1.079584,0.1011 1.55127,0.3032 0.471672,0.2022 0.824699,0.4673 1.059082,0.7954 0.234367,0.3281 0.398429,0.7178 0.492188,1.1689 0.05859,0.293 0.08788,0.8057 0.08789,1.5381 l 0,5.7393 -1.582031,0 0,-5.6777 c -7e-6,-0.6446 -0.06153,-1.1265 -0.18457,-1.4458 -0.123054,-0.3194 -0.341316,-0.5743 -0.654786,-0.7647 -0.313482,-0.1904 -0.681158,-0.2856 -1.103027,-0.2856 -0.673833,0 -1.255375,0.2138 -1.744629,0.6416 -0.489261,0.4277 -0.733889,1.2392 -0.733887,2.4345 l 0,5.0977 z m 1.125,-10.7139 c -0.0059,-0.6093 0.161131,-1.0957 0.500977,-1.459 0.333981,-0.3632 0.761715,-0.5449 1.283203,-0.5449 0.363277,0 0.858393,0.1582 1.485351,0.4746 0.345698,0.1758 0.621088,0.2637 0.826172,0.2637 0.187494,0 0.331048,-0.051 0.430664,-0.1538 0.0996,-0.1025 0.169915,-0.3061 0.210938,-0.6108 l 1.142578,0 c -0.01759,0.6679 -0.186043,1.1689 -0.505371,1.5029 -0.319343,0.334 -0.725105,0.501 -1.217285,0.501 -0.369147,0 -0.855475,-0.1641 -1.458985,-0.4922 -0.392582,-0.211 -0.679691,-0.3164 -0.861328,-0.3164 -0.199222,0 -0.360355,0.07 -0.483398,0.2109 -0.12891,0.1406 -0.190433,0.3486 -0.18457,0.624 z"
         style=""
         id="path3329" />
      <path
         d="m 56.700603,1021.704 c -0.87305,-1.1016 -1.61133,-2.3906 -2.214843,-3.8672 -0.603517,-1.4766 -0.905275,-3.0059 -0.905274,-4.5879 -10e-7,-1.3945 0.225585,-2.7305 0.676758,-4.0078 0.527342,-1.4824 1.341794,-2.959 2.443359,-4.4297 l 1.13379,0 c -0.708989,1.2188 -1.177739,2.0889 -1.40625,2.6104 -0.357426,0.8086 -0.638676,1.6523 -0.84375,2.5312 -0.251956,1.0957 -0.377933,2.1973 -0.37793,3.3047 -3e-6,2.8184 0.875973,5.6338 2.62793,8.4463 z"
         style=""
         id="path3331" />
      <path
         d="m 68.346111,1005.0311 1.705078,0 0,7.4444 c -1.1e-5,1.2949 -0.146495,2.3232 -0.439453,3.0849 -0.292979,0.7617 -0.821787,1.3814 -1.586425,1.8589 -0.764658,0.4776 -1.768075,0.7163 -3.010254,0.7163 -1.207037,0 -2.194341,-0.208 -2.961914,-0.624 -0.767581,-0.416 -1.315432,-1.0181 -1.643555,-1.8062 -0.328127,-0.788 -0.492189,-1.8647 -0.492188,-3.2299 l 0,-7.4444 1.705078,0 0,7.4356 c -3e-6,1.1191 0.104001,1.9438 0.312012,2.4741 0.208004,0.5303 0.565426,0.939 1.072266,1.2261 0.506831,0.2871 1.126459,0.4306 1.858887,0.4306 1.253898,0 2.147452,-0.2841 2.680664,-0.8525 0.533193,-0.5684 0.799794,-1.6611 0.799804,-3.2783 z"
         style=""
         id="path3333" />
      <path
         d="m 76.177166,1017.9159 0,-11.3643 -4.245117,0 0,-1.5205 10.21289,0 0,1.5205 -4.262695,0 0,11.3643 z"
         style=""
         id="path3335" />
      <path
         d="m 83.990643,1017.9159 0,-12.8848 8.692382,0 0,1.5205 -6.987304,0 0,3.9903 6.046875,0 0,1.5205 -6.046875,0 0,5.8535 z"
         style=""
         id="path3337" />
      <path
         d="m 94.089275,1014.0487 0,-1.5908 4.860352,0 0,1.5908 z"
         style=""
         id="path3339" />
      <path
         d="m 102.71135,1010.9286 c -0.65626,-0.2402 -1.14258,-0.583 -1.45899,-1.0283 -0.31641,-0.4453 -0.47461,-0.9785 -0.47461,-1.5996 0,-0.9375 0.33691,-1.7256 1.01074,-2.3643 0.67383,-0.6387 1.57031,-0.958 2.68946,-0.958 1.12499,0 2.03026,0.3267 2.71582,0.98 0.68554,0.6533 1.02831,1.4487 1.02832,2.3862 -10e-6,0.5977 -0.15675,1.1177 -0.47022,1.5601 -0.31348,0.4424 -0.78956,0.7837 -1.42822,1.0239 0.79101,0.2578 1.39306,0.6738 1.80615,1.248 0.41308,0.5743 0.61962,1.2598 0.61963,2.0567 -1e-5,1.1015 -0.38966,2.0273 -1.16894,2.7773 -0.77931,0.75 -1.8047,1.125 -3.07618,1.125 -1.27148,0 -2.29687,-0.3764 -3.07617,-1.1294 -0.7793,-0.7529 -1.16894,-1.6919 -1.16894,-2.8169 0,-0.8379 0.2124,-1.5395 0.6372,-2.1049 0.42481,-0.5655 1.02979,-0.9507 1.81495,-1.1558 z m -0.31641,-2.6807 c 0,0.6094 0.19629,1.1075 0.58887,1.4942 0.39257,0.3867 0.90234,0.5801 1.52929,0.58 0.60937,10e-5 1.10888,-0.1918 1.49854,-0.5756 0.38964,-0.3838 0.58446,-0.854 0.58447,-1.4107 -10e-6,-0.5801 -0.20069,-1.0678 -0.60205,-1.4634 -0.40137,-0.3955 -0.90088,-0.5932 -1.49853,-0.5932 -0.60352,0 -1.1045,0.1933 -1.50293,0.5801 -0.39844,0.3867 -0.59766,0.8496 -0.59766,1.3886 z m -0.50977,5.9502 c 0,0.4512 0.10693,0.8877 0.3208,1.3096 0.21387,0.4219 0.53174,0.7485 0.95362,0.98 0.42187,0.2314 0.87597,0.3471 1.3623,0.3471 0.75586,0 1.37988,-0.2431 1.87207,-0.7295 0.49218,-0.4863 0.73828,-1.1044 0.73828,-1.8544 0,-0.7618 -0.25342,-1.3916 -0.76025,-1.8897 -0.50684,-0.498 -1.14112,-0.7471 -1.90283,-0.7471 -0.74415,0 -1.36085,0.2461 -1.8501,0.7383 -0.48926,0.4922 -0.73389,1.1074 -0.73389,1.8457 z"
         style=""
         id="path3341" />
      <path
         d="m 111.77287,1021.704 -1.13379,0 c 1.75195,-2.8125 2.62793,-5.6279 2.62793,-8.4463 0,-1.1016 -0.12598,-2.1943 -0.37793,-3.2783 -0.19922,-0.8789 -0.47754,-1.7227 -0.83496,-2.5313 -0.22852,-0.5273 -0.7002,-1.4062 -1.41504,-2.6367 l 1.13379,0 c 1.10156,1.4707 1.91601,2.9473 2.44336,4.4297 0.45117,1.2773 0.67675,2.6133 0.67676,4.0078 -1e-5,1.582 -0.30323,3.1113 -0.90967,4.5879 -0.60645,1.4766 -1.34327,2.7656 -2.21045,3.8672 z"
         style=""
         id="path3343" />
      <path
         d="m 130.06291,1010.3397 -8.50781,0 0,-1.4765 8.50781,0 z m 0,3.9112 -8.50781,0 0,-1.4766 8.50781,0 z"
         style=""
         id="path3345" />
    </g>
    <g
       style="font-size:18px"
       id="text4455">
      <path
         d="m 363.14682,1010.4984 -8.50781,0 0,-1.4765 8.50781,0 z m 0,3.9111 -8.50781,0 0,-1.4765 8.50781,0 z"
         style=""
         id="path3318" />
      <path
         d="m 384.71518,1013.557 1.70508,0.4307 c -0.35744,1.4004 -1.0005,2.4682 -1.9292,3.2036 -0.92872,0.7353 -2.06397,1.103 -3.40576,1.103 -1.38868,0 -2.51807,-0.2827 -3.38819,-0.8481 -0.87012,-0.5655 -1.53223,-1.3843 -1.98633,-2.4566 -0.4541,-1.0722 -0.68115,-2.2236 -0.68115,-3.4541 0,-1.3418 0.25635,-2.5122 0.76905,-3.5112 0.51269,-0.999 1.24218,-1.7578 2.18847,-2.2764 0.94629,-0.5185 1.98779,-0.7778 3.12451,-0.7778 1.28906,0 2.37304,0.3281 3.25196,0.9844 0.87889,0.6562 1.4912,1.5791 1.83691,2.7685 l -1.67871,0.3955 c -0.29884,-0.9375 -0.73243,-1.6201 -1.30078,-2.0478 -0.56837,-0.4277 -1.28321,-0.6416 -2.14453,-0.6416 -0.99024,0 -1.81788,0.2373 -2.48291,0.7119 -0.66505,0.4746 -1.13233,1.1118 -1.40186,1.9116 -0.26953,0.7998 -0.4043,1.6245 -0.40429,2.4741 -10e-6,1.0957 0.15966,2.0523 0.479,2.8697 0.31933,0.8173 0.81591,1.4282 1.48975,1.8325 0.67382,0.4043 1.40331,0.6064 2.18847,0.6064 0.95507,0 1.76366,-0.2754 2.42578,-0.8261 0.6621,-0.5508 1.11034,-1.3682 1.34473,-2.4522 z"
         style=""
         id="path3320" />
      <path
         d="m 387.89682,1014.6732 1.58203,-0.2109 c 0.18164,0.8965 0.49072,1.5425 0.92725,1.938 0.43652,0.3955 0.96825,0.5932 1.59521,0.5932 0.74414,0 1.37255,-0.2578 1.88526,-0.7734 0.51268,-0.5156 0.76903,-1.1543 0.76904,-1.916 -1e-5,-0.7266 -0.23731,-1.3257 -0.71191,-1.7974 -0.47462,-0.4717 -1.07814,-0.7075 -1.81055,-0.7075 -0.29883,0 -0.6709,0.059 -1.11621,0.1758 l 0.17578,-1.3887 c 0.10546,0.012 0.19042,0.018 0.25488,0.018 0.67382,0 1.28027,-0.1758 1.81934,-0.5274 0.53905,-0.3515 0.80858,-0.8935 0.80859,-1.6259 -1e-5,-0.5801 -0.19629,-1.0606 -0.58887,-1.4414 -0.39258,-0.3809 -0.89942,-0.5713 -1.5205,-0.5713 -0.61524,0 -1.12794,0.1933 -1.53809,0.58 -0.41016,0.3868 -0.67383,0.9669 -0.79102,1.7403 l -1.58203,-0.2813 c 0.19336,-1.0605 0.63281,-1.8823 1.31836,-2.4653 0.68555,-0.583 1.53808,-0.8745 2.55762,-0.8745 0.70312,0 1.35058,0.1509 1.94238,0.4526 0.59179,0.3018 1.04443,0.7134 1.35791,1.2349 0.31347,0.5215 0.47021,1.0752 0.47022,1.6611 -10e-6,0.5567 -0.14942,1.0635 -0.44824,1.5205 -0.29884,0.4571 -0.74122,0.8203 -1.32715,1.0899 0.76171,0.1758 1.3535,0.5405 1.77539,1.0942 0.42186,0.5537 0.6328,1.2466 0.63281,2.0786 -10e-6,1.125 -0.41016,2.0786 -1.23047,2.8609 -0.82032,0.7822 -1.85743,1.1733 -3.11133,1.1733 -1.13086,0 -2.06982,-0.3369 -2.81689,-1.0107 -0.74707,-0.6739 -1.17334,-1.5469 -1.27881,-2.6192 z"
         style=""
         id="path3322" />
      <path
         d="m 398.47885,1018.0746 0,-12.8848 4.83399,0 c 0.98436,0 1.77391,0.1304 2.36865,0.3911 0.59472,0.2608 1.06054,0.6622 1.39746,1.2041 0.3369,0.542 0.50536,1.1089 0.50537,1.7007 -10e-6,0.5508 -0.14942,1.0694 -0.44824,1.5557 -0.29884,0.4863 -0.75001,0.8789 -1.35352,1.1777 0.77929,0.2285 1.37841,0.6182 1.79737,1.169 0.41893,0.5507 0.6284,1.2011 0.62841,1.9511 -1e-5,0.6036 -0.12745,1.1646 -0.38232,1.6831 -0.25489,0.5186 -0.56984,0.9185 -0.94482,1.1997 -0.37501,0.2813 -0.84523,0.4937 -1.41065,0.6373 -0.56544,0.1435 -1.25831,0.2153 -2.07861,0.2153 z m 1.70508,-7.4707 2.78613,0 c 0.75586,0 1.29785,-0.05 1.62598,-0.1494 0.43358,-0.1289 0.76024,-0.3428 0.97998,-0.6416 0.21972,-0.2989 0.32958,-0.6739 0.32959,-1.125 -1e-5,-0.4278 -0.10255,-0.8042 -0.30762,-1.1294 -0.20508,-0.3252 -0.49805,-0.5479 -0.8789,-0.668 -0.38087,-0.1201 -1.03419,-0.1802 -1.95997,-0.1802 l -2.57519,0 z m 0,5.9502 3.20801,0 c 0.55077,0 0.93749,-0.02 1.16015,-0.061 0.39257,-0.07 0.7207,-0.1875 0.98438,-0.3516 0.26366,-0.1641 0.48046,-0.4028 0.65039,-0.7163 0.16991,-0.3135 0.25487,-0.6753 0.25488,-1.0855 -10e-6,-0.4804 -0.12305,-0.8979 -0.36914,-1.2524 -0.2461,-0.3545 -0.58741,-0.6035 -1.02392,-0.7471 -0.43654,-0.1435 -1.06495,-0.2153 -1.88526,-0.2153 l -2.97949,0 z"
         style=""
         id="path3324" />
      <path
         d="m 415.88998,1018.0746 -1.58203,0 0,-10.0811 c -0.38086,0.3633 -0.88037,0.7266 -1.49853,1.0899 -0.61817,0.3633 -1.17334,0.6357 -1.66553,0.8174 l 0,-1.5293 c 0.88476,-0.416 1.6582,-0.92 2.32031,-1.5118 0.66211,-0.5917 1.13086,-1.166 1.40625,-1.7226 l 1.01953,0 z"
         style=""
         id="path3326" />
    </g>
  </g>
</svg>
